<?xml version="1.0" encoding="UTF-8"?>
<svg version="1.1" xmlns="http://www.w3.org/2000/svg" width="1200" height="1200">
<path d="M0 0 C20.46181248 17.78869976 33.12360042 41.33344408 36.55859375 68.35498047 C36.8357104 72.42273887 36.89161796 76.46617903 36.87109375 80.54248047 C36.86980469 81.61876709 36.86851562 82.69505371 36.8671875 83.80395508 C36.75826665 92.94309483 35.51762286 101.44382885 33.55859375 110.35498047 C34.6266626 110.96418335 34.6266626 110.96418335 35.71630859 111.58569336 C51.9490483 120.84689581 68.1591918 130.14577907 84.34082031 139.49609375 C89.7453002 142.61822652 95.15206787 145.73639251 100.55859375 148.85498047 C102.72527125 150.10496168 104.89193792 151.35496168 107.05859375 152.60498047 C108.66734375 153.53310547 108.66734375 153.53310547 110.30859375 154.47998047 C128.18359375 164.79248047 128.18359375 164.79248047 146.05859375 175.10498047 C147.13125488 175.72381104 148.20391602 176.3426416 149.30908203 176.98022461 C151.47416446 178.22933565 153.63920357 179.47852176 155.80419922 180.7277832 C161.24475081 183.86700356 166.68606591 187.0048861 172.12890625 190.14013672 C182.58065574 196.16245376 193.02158923 202.20167384 203.43359375 208.29248047 C212.69680888 213.7102253 222.00220553 219.05124024 231.3269043 224.36212158 C240.89946237 229.81494953 250.42873884 235.33684369 259.921875 240.92724609 C264.4043255 243.55824965 268.865573 246.11834014 273.55859375 248.35498047 C274.19023438 247.73751953 274.821875 247.12005859 275.47265625 246.48388672 C296.53228735 226.54703134 323.44582698 215.68434914 352.60327148 216.3762207 C369.03364224 217.08868959 383.89947947 220.94351768 398.55859375 228.35498047 C400.14607422 229.15742188 400.14607422 229.15742188 401.765625 229.97607422 C425.49058254 242.94240095 443.13993981 265.6964393 450.84375 291.49169922 C458.61941847 319.22191459 455.31282457 347.52474452 442.30859375 373.04248047 C428.32628803 397.84880795 405.84037764 415.21959373 378.81640625 423.76123047 C376.55859375 424.35498047 376.55859375 424.35498047 374.55859375 424.35498047 C374.88859375 516.09498047 375.21859375 607.83498047 375.55859375 702.35498047 C381.49859375 704.33498047 387.43859375 706.31498047 393.55859375 708.35498047 C420.09471506 721.96324781 440.31375685 743.04561939 449.79199219 771.63696289 C453.18617963 782.37876539 454.93445293 792.76087304 454.87109375 804.04248047 C454.8661792 805.08903809 454.86126465 806.1355957 454.85620117 807.21386719 C454.49506544 831.30810222 445.90984226 853.76656588 430.55859375 872.35498047 C429.78644531 873.29212891 429.01429688 874.22927734 428.21875 875.19482422 C413.70679773 891.96471396 395.59702124 901.30951698 374.55859375 907.35498047 C373.66914062 907.61150391 372.7796875 907.86802734 371.86328125 908.13232422 C346.95040169 914.07842962 318.67487604 909.04500675 296.58984375 896.69482422 C287.3419929 890.99284877 279.01267636 884.25334614 271.55859375 876.35498047 C267.77340643 877.77103107 264.36110054 879.50919112 260.859375 881.52294922 C259.7461084 882.16111572 258.6328418 882.79928223 257.48583984 883.45678711 C256.28087693 884.15193581 255.07596285 884.84716917 253.87109375 885.54248047 C252.61424576 886.26466664 251.35724463 886.98658637 250.10009766 887.70825195 C246.87222227 889.56241114 243.64670026 891.42062 240.42205811 893.28039551 C237.56334171 894.9289023 234.70340921 896.57529735 231.84375 898.22216797 C226.48581266 901.30977223 221.13066874 904.4021898 215.77636719 907.49609375 C210.3718873 910.61822652 204.96511963 913.73639251 199.55859375 916.85498047 C197.39191625 918.10496168 195.22524958 919.35496168 193.05859375 920.60498047 C180.05859374 928.10498048 180.05859374 928.10498048 176.80810547 929.98022461 C174.64302304 931.22933565 172.47798393 932.47852176 170.31298828 933.7277832 C164.87243669 936.86700356 159.43112159 940.0048861 153.98828125 943.14013672 C143.53653176 949.16245376 133.09559827 955.20167384 122.68359375 961.29248047 C113.41359598 966.71419224 104.10027623 972.05702962 94.7701416 977.37420654 C85.66487088 982.56454091 76.59478888 987.81232618 67.54882812 993.10546875 C59.7351938 997.67568291 51.90105462 1002.20948417 44.05859375 1006.72998047 C43.18578766 1007.2330925 43.18578766 1007.2330925 42.29534912 1007.74636841 C39.05022866 1009.61671304 35.80462671 1011.48622001 32.55859375 1013.35498047 C32.84734375 1014.50869141 33.13609375 1015.66240234 33.43359375 1016.85107422 C40.21245239 1045.82488745 37.1846949 1074.19869575 22.52734375 1100.20263672 C6.85007557 1125.30492922 -16.83899992 1142.20437889 -45.44140625 1149.35498047 C-72.76262711 1155.2051522 -101.7941645 1150.194864 -125.44140625 1135.35498047 C-149.1760931 1119.61909111 -166.24143105 1095.82564501 -171.97875977 1067.72290039 C-173.31034906 1060.45812372 -173.79134837 1053.42088128 -173.75390625 1046.04248047 C-173.75189209 1044.9595874 -173.74987793 1043.87669434 -173.74780273 1042.76098633 C-173.63995214 1034.10258554 -173.39750102 1024.26717002 -169.44140625 1016.35498047 C-170.14885986 1016.09031982 -170.85631348 1015.82565918 -171.58520508 1015.55297852 C-174.58977971 1014.29274707 -177.31641423 1012.81114738 -180.140625 1011.18701172 C-181.2538916 1010.54884521 -182.3671582 1009.91067871 -183.51416016 1009.25317383 C-184.71912307 1008.55802513 -185.92403715 1007.86279177 -187.12890625 1007.16748047 C-188.38575424 1006.44529429 -189.64275537 1005.72337457 -190.89990234 1005.00170898 C-194.12777773 1003.1475498 -197.35329974 1001.28934094 -200.57794189 999.42956543 C-203.43665829 997.78105864 -206.29659079 996.13466359 -209.15625 994.48779297 C-214.51418734 991.40018871 -219.86933126 988.30777114 -225.22363281 985.21386719 C-230.6281127 982.09173442 -236.03488037 978.97356843 -241.44140625 975.85498047 C-243.60808375 974.60499925 -245.77475042 973.35499926 -247.94140625 972.10498047 C-249.01390625 971.48623047 -250.08640625 970.86748047 -251.19140625 970.22998047 C-280.44140625 953.35498047 -309.69140625 936.47998047 -338.94140625 919.60498047 C-340.01406738 918.9861499 -341.08672852 918.36731934 -342.19189453 917.72973633 C-344.35697696 916.48062529 -346.52201607 915.23143918 -348.68701172 913.98217773 C-354.12756331 910.84295737 -359.56887841 907.70507484 -365.01171875 904.56982422 C-366.09630371 903.94462891 -367.18088867 903.31943359 -368.29833984 902.67529297 C-370.45927353 901.43032654 -372.62104431 900.18681187 -374.78369141 898.94482422 C-380.30874861 895.76600112 -385.8058536 892.54849183 -391.26953125 889.26513672 C-392.36894043 888.60908447 -393.46834961 887.95303223 -394.60107422 887.27709961 C-396.70007468 886.02232128 -398.79317252 884.75760062 -400.87939453 883.48168945 C-402.28294189 882.64553101 -402.28294189 882.64553101 -403.71484375 881.79248047 C-404.53388184 881.29619141 -405.35291992 880.79990234 -406.19677734 880.28857422 C-408.37343488 879.17175995 -408.37343488 879.17175995 -410.60424805 879.59106445 C-413.24292171 880.68826178 -414.84643976 882.41928829 -416.87890625 884.41748047 C-422.56044565 889.68064436 -428.71471525 893.55765491 -435.44140625 897.35498047 C-436.27414062 897.82806641 -437.106875 898.30115234 -437.96484375 898.78857422 C-462.31372353 911.77194699 -491.96517421 913.54268782 -518.17456055 905.59033203 C-526.010693 903.01512011 -533.25264275 899.36317592 -540.44140625 895.35498047 C-541.4159375 894.82259766 -542.39046875 894.29021484 -543.39453125 893.74169922 C-566.25108032 880.27504823 -581.79913653 856.6336619 -588.734375 831.36279297 C-595.20016783 803.8563815 -591.5957692 774.75940101 -577.06640625 750.35498047 C-573.06759321 743.91202195 -568.50427259 738.00272668 -563.44140625 732.35498047 C-562.83039063 731.66146484 -562.219375 730.96794922 -561.58984375 730.25341797 C-549.01933192 716.8270415 -531.1513464 707.01226577 -513.44140625 702.35498047 C-512.78140625 702.35498047 -512.12140625 702.35498047 -511.44140625 702.35498047 C-511.44140625 610.61498047 -511.44140625 518.87498047 -511.44140625 424.35498047 C-515.07140625 423.36498047 -518.70140625 422.37498047 -522.44140625 421.35498047 C-525.14862408 420.34900583 -527.75085345 419.33799198 -530.37890625 418.16748047 C-531.39621826 417.71574463 -531.39621826 417.71574463 -532.43408203 417.25488281 C-543.14688671 412.34369122 -551.97241652 405.48005183 -560.44140625 397.35498047 C-561.15167969 396.69626953 -561.86195313 396.03755859 -562.59375 395.35888672 C-580.11120766 378.64837528 -590.9226681 353.10589734 -591.77734375 329.00732422 C-592.17836365 299.17320653 -584.76492002 272.92108886 -564.44140625 250.35498047 C-563.755625 249.58669922 -563.06984375 248.81841797 -562.36328125 248.02685547 C-543.43892432 227.98105516 -516.62493112 217.3966335 -489.33520508 216.32495117 C-461.78935904 215.84817947 -437.11904656 225.81625096 -415.98925781 243.09033203 C-413.82036144 244.86239563 -411.63081658 246.60837223 -409.44140625 248.35498047 C-408.85053223 248.00943115 -408.2596582 247.66388184 -407.65087891 247.30786133 C-392.70402215 238.56998564 -377.72616886 229.88803573 -362.72363281 221.24609375 C-357.29480687 218.11817901 -351.86818618 214.98644316 -346.44140625 211.85498047 C-339.9190735 208.09134127 -333.39626863 204.32853425 -326.87109375 200.56982422 C-316.41934426 194.54750718 -305.97841077 188.5082871 -295.56640625 182.41748047 C-286.29640848 176.99576869 -276.98308873 171.65293132 -267.6529541 166.33575439 C-258.52857785 161.13452918 -249.44007851 155.87470169 -240.37451172 150.5715332 C-229.87549133 144.43189245 -219.33742493 138.36056462 -208.79833984 132.29003906 C-205.30947922 130.27893293 -201.82245797 128.26467051 -198.3359375 126.24951172 C-197.15935413 125.56972261 -195.9827592 124.88995352 -194.80615234 124.21020508 C-192.58872247 122.9289988 -190.37158066 121.6472938 -188.15478516 120.36499023 C-182.28043549 116.9724104 -176.38528197 113.62434631 -170.44140625 110.35498047 C-170.76625 108.94925781 -170.76625 108.94925781 -171.09765625 107.51513672 C-177.34733868 78.15349109 -173.22221034 48.97443402 -157.44140625 23.35498047 C-141.14921071 -1.20912129 -116.67617088 -17.24161141 -87.95703125 -23.39111328 C-56.50924343 -28.64448797 -24.39651235 -20.69292709 0 0 Z M6.55859375 154.35498047 C5.56859375 155.83998047 5.56859375 155.83998047 4.55859375 157.35498047 C5.07691772 158.2412915 5.07691772 158.2412915 5.60571289 159.14550781 C14.34358858 174.09236457 23.02553849 189.07021786 31.66748047 204.07275391 C34.79539523 209.50157989 37.92717823 214.92817328 41.05859375 220.35498047 C42.30861254 222.5216363 43.55861253 224.68830297 44.80859375 226.85498047 C45.42734375 227.92748047 46.04609375 228.99998047 46.68359375 230.10498047 C67.30859375 265.85498047 67.30859375 265.85498047 69.18383789 269.10546875 C70.43294893 271.27055118 71.68213504 273.43559029 72.93139648 275.60058594 C76.07061684 281.04113753 79.20849938 286.48245263 82.34375 291.92529297 C88.36606704 302.37704246 94.40528712 312.81797595 100.49609375 323.22998047 C105.91780553 332.49997824 111.2606429 341.81329799 116.57781982 351.14343262 C121.77904504 360.26780887 127.03887253 369.35630821 132.34204102 378.421875 C138.49626117 388.94582672 144.58229371 399.50878184 150.66748047 410.07275391 C153.79539523 415.50157989 156.92717823 420.92817328 160.05859375 426.35498047 C161.30861254 428.5216363 162.55861253 430.68830297 163.80859375 432.85498047 C164.42734375 433.92748047 165.04609375 434.99998047 165.68359375 436.10498047 C261.30859375 601.85498046 261.30859375 601.85498046 263.18383789 605.10546875 C264.43294893 607.27055118 265.68213504 609.43559029 266.93139648 611.60058594 C270.07061684 617.04113753 273.20849938 622.48245263 276.34375 627.92529297 C282.92569178 639.3482729 289.5345121 650.75436111 296.19482422 662.13183594 C299.4574895 667.71691981 302.68773898 673.31919926 305.88671875 678.94091797 C306.25064224 679.58008148 306.61456573 680.219245 306.98951721 680.8777771 C308.76975415 684.00576865 310.54647046 687.13568885 312.31811523 690.26855469 C312.95821533 691.39535645 313.59831543 692.5221582 314.2578125 693.68310547 C314.82330811 694.68245117 315.38880371 695.68179688 315.97143555 696.71142578 C317.37887434 699.05564164 318.87033467 701.20761942 320.55859375 703.35498047 C321.54859375 703.02498047 322.53859375 702.69498047 323.55859375 702.35498047 C323.55859375 610.61498047 323.55859375 518.87498047 323.55859375 424.35498047 C320.25859375 423.03498047 316.95859375 421.71498047 313.55859375 420.35498047 C285.64683335 409.06120459 265.00039174 390.37215353 252.93481445 362.45849609 C243.78095932 340.26927362 243.50732598 316.57315044 248.55859375 293.35498047 C247.83607422 292.9436084 247.11355469 292.53223633 246.36914062 292.10839844 C233.73407692 284.91088189 221.10680812 277.70324556 208.55859375 270.35498047 C199.92363495 265.2986424 191.25253038 260.30890914 182.55859375 255.35498047 C172.83734869 249.81512114 163.14964507 244.22123115 153.49169922 238.5715332 C142.9677475 232.41731305 132.40479238 226.33128051 121.84082031 220.24609375 C116.41199433 217.11817899 110.98540094 213.98639599 105.55859375 210.85498047 C103.39193792 209.60496168 101.22527125 208.35496168 99.05859375 207.10498047 C60.05859375 184.60498047 60.05859375 184.60498047 56.80419922 182.72729492 C54.65235461 181.48594572 52.50033827 180.24489417 50.34814453 179.00415039 C45.30307313 176.09518044 40.25970954 173.18337524 35.22259521 170.26065063 C33.44179374 169.22755107 31.66043517 168.19541876 29.87890625 167.16357422 C27.64602292 165.86991959 25.41418465 164.57445883 23.18359375 163.27685547 C17.71976971 160.11395478 12.24348307 157.10199533 6.55859375 154.35498047 Z M-144.44140625 154.35498047 C-158.83649309 162.34939477 -173.14520836 170.46672957 -187.3515625 178.79248047 C-193.65711044 182.48711357 -199.98435061 186.14350728 -206.31640625 189.79248047 C-207.39656006 190.41501709 -208.47671387 191.03755371 -209.58959961 191.67895508 C-211.77936959 192.94074873 -213.9692298 194.20238581 -216.15917969 195.46386719 C-221.58800567 198.59178195 -227.01459906 201.72356495 -232.44140625 204.85498047 C-234.60806208 206.10499926 -236.77472875 207.35499925 -238.94140625 208.60498047 C-240.01390625 209.22373047 -241.08640625 209.84248047 -242.19140625 210.47998047 C-329.94140625 261.10498047 -329.94140625 261.10498047 -333.1953125 262.98217773 C-335.34902345 264.22474066 -337.50266992 265.46741536 -339.65625 266.71020508 C-344.67824887 269.6081267 -349.70083432 272.50501396 -354.72583008 275.3977356 C-356.49186147 276.41445245 -358.25768056 277.43153705 -360.0234375 278.44873047 C-362.2287478 279.7189892 -364.43444841 280.98857065 -366.640625 282.25732422 C-372.9477452 285.89138835 -379.21395962 289.58596306 -385.44140625 293.35498047 C-385.22484375 294.30373047 -385.00828125 295.25248047 -384.78515625 296.22998047 C-378.67303724 325.1773531 -382.68460615 354.14410031 -398.44140625 379.35498047 C-412.76563128 400.48398919 -432.82611134 415.32374122 -457.28125 422.66357422 C-459.39859087 423.15953234 -459.39859087 423.15953234 -460.44140625 424.35498047 C-460.53817576 425.84062291 -460.5651238 427.33086676 -460.56445408 428.81965733 C-460.56644513 429.79003234 -460.56843618 430.76040736 -460.57048756 431.76018769 C-460.56757472 432.83895847 -460.56466188 433.91772925 -460.56166077 435.02919006 C-460.56251519 436.16527204 -460.56336962 437.30135403 -460.56424993 438.47186273 C-460.56561805 441.63925595 -460.56247082 444.8066088 -460.55747187 447.97399724 C-460.5531705 451.38437282 -460.55461357 454.79474637 -460.55537415 458.2051239 C-460.55589958 464.11847955 -460.55275075 470.0318242 -460.54713631 475.94517708 C-460.53902394 484.4949887 -460.53640636 493.04479498 -460.53514832 501.59461003 C-460.53295738 515.4646877 -460.52629617 529.3347595 -460.5168457 543.20483398 C-460.50767266 556.68172171 -460.5005913 570.15860784 -460.49633789 583.63549805 C-460.49607517 584.46562009 -460.49581244 585.29574214 -460.49554176 586.1510194 C-460.49423676 590.31532057 -460.49297304 594.47962174 -460.49172986 598.64392292 C-460.48135595 633.21427962 -460.46373651 667.78462951 -460.44140625 702.35498047 C-459.12140625 702.35498047 -457.80140625 702.35498047 -456.44140625 702.35498047 C-454.81802809 700.53174363 -454.81802809 700.53174363 -453.515625 698.01904297 C-452.70363647 696.59615967 -452.70363647 696.59615967 -451.87524414 695.14453125 C-451.01080688 693.57807861 -451.01080688 693.57807861 -450.12890625 691.97998047 C-448.87110346 689.76122496 -447.61329063 687.54247515 -446.35546875 685.32373047 C-445.70170248 684.15861601 -445.04838463 682.99324982 -444.39550781 681.82763672 C-441.31339861 676.35038518 -438.15419636 670.91819308 -435.00390625 665.47998047 C-433.74415401 663.29545223 -432.48504309 661.11055404 -431.2265625 658.92529297 C-427.46785244 652.40011804 -423.70498875 645.87734597 -419.94140625 639.35498047 C-418.69138746 637.18832464 -417.44138747 635.02165797 -416.19140625 632.85498047 C-413.69140625 628.52164714 -411.19140625 624.1883138 -408.69140625 619.85498047 C-408.07257568 618.78231934 -407.45374512 617.7096582 -406.81616211 616.60449219 C-405.56705107 614.43940976 -404.31786496 612.27437065 -403.06860352 610.109375 C-399.92938316 604.66882341 -396.79150062 599.22750831 -393.65625 593.78466797 C-387.63393296 583.33291847 -381.59471288 572.89198499 -375.50390625 562.47998047 C-370.42865502 553.80235806 -365.41881858 545.08892479 -360.44140625 536.35498047 C-354.90138895 526.6338243 -349.30765816 516.94603389 -343.65795898 507.28808594 C-337.50373883 496.76413422 -331.41770629 486.20117909 -325.33251953 475.63720703 C-322.20460477 470.20838105 -319.07282177 464.78178766 -315.94140625 459.35498047 C-314.69138746 457.18832464 -313.44138747 455.02165797 -312.19140625 452.85498047 C-274.69140625 387.85498047 -237.19140625 322.85498047 -199.69140625 257.85498047 C-199.07257568 256.78231934 -198.45374512 255.7096582 -197.81616211 254.60449219 C-196.56705107 252.43940976 -195.31786496 250.27437065 -194.06860352 248.109375 C-190.92938316 242.66882341 -187.79150062 237.22750831 -184.65625 231.78466797 C-178.63393212 221.33291702 -172.59451954 210.89209897 -166.50390625 200.47998047 C-161.18503677 191.38225668 -155.92322694 182.25293911 -150.69140625 173.10498047 C-150.34071075 172.49253479 -149.99001526 171.88008911 -149.62869263 171.24908447 C-148.63271786 169.50905883 -147.63858704 167.76797811 -146.64453125 166.02685547 C-146.07379883 165.02750977 -145.50306641 164.02816406 -144.91503906 162.99853516 C-143.69403653 160.80817474 -142.53734907 158.60975905 -141.44140625 156.35498047 C-142.43140625 155.69498047 -143.42140625 155.03498047 -144.44140625 154.35498047 Z M-97.44140625 182.35498047 C-99.20869949 184.35634829 -99.20869949 184.35634829 -100.75390625 187.22998047 C-101.08382568 187.79241455 -101.41374512 188.35484863 -101.75366211 188.93432617 C-102.53486733 190.27277392 -103.30834621 191.61574627 -104.07617188 192.96191406 C-105.62703528 195.6803624 -107.19775429 198.38685274 -108.76953125 201.09326172 C-111.67453235 206.10439831 -114.5652504 211.12357558 -117.44941711 216.14672852 C-120.93765585 222.22139786 -124.43932166 228.28828673 -127.94140625 234.35498047 C-129.19146737 236.52161188 -130.44146725 238.68827861 -131.69140625 240.85498047 C-157.94140625 286.35498047 -157.94140625 286.35498047 -184.19140625 331.85498047 C-184.81023682 332.9276416 -185.42906738 334.00030273 -186.06665039 335.10546875 C-187.31576143 337.27055118 -188.56494754 339.43559029 -189.81420898 341.60058594 C-192.95342934 347.04113753 -196.09131188 352.48245263 -199.2265625 357.92529297 C-205.24887954 368.37704246 -211.28809962 378.81797595 -217.37890625 389.22998047 C-222.45415748 397.90760288 -227.46399392 406.62103615 -232.44140625 415.35498047 C-237.98142355 425.07613664 -243.57515434 434.76392705 -249.22485352 444.421875 C-255.37907367 454.94582672 -261.46510621 465.50878184 -267.55029297 476.07275391 C-270.67820773 481.50157989 -273.80999073 486.92817328 -276.94140625 492.35498047 C-278.19142504 494.5216363 -279.44142503 496.68830297 -280.69140625 498.85498047 C-313.19140625 555.1883138 -345.69140625 611.52164714 -378.19140625 667.85498047 C-378.81063965 668.9283667 -379.42987305 670.00175293 -380.06787109 671.10766602 C-381.31281907 673.2654785 -382.55793515 675.423194 -383.80322266 677.58081055 C-387.00693276 683.13214639 -390.20734255 688.68534588 -393.40234375 694.24169922 C-399.98061907 705.67531006 -406.58080352 717.08797436 -413.44140625 728.35498047 C-412.20390625 729.77810547 -412.20390625 729.77810547 -410.94140625 731.22998047 C-409.77440255 732.60469443 -408.60776617 733.97972026 -407.44140625 735.35498047 C-406.51908203 736.40878906 -406.51908203 736.40878906 -405.578125 737.48388672 C-401.48879739 742.3271585 -398.00688227 747.3920779 -394.81640625 752.85498047 C-394.46860107 753.42788818 -394.1207959 754.0007959 -393.76245117 754.59106445 C-389.31253744 762.48185765 -387.3944789 770.49576252 -384.44140625 779.35498047 C-175.88140625 779.35498047 32.67859375 779.35498047 247.55859375 779.35498047 C249.53859375 773.41498047 251.51859375 767.47498047 253.55859375 761.35498047 C254.96127764 758.3278826 256.23250081 755.65729067 257.93359375 752.85498047 C258.31225586 752.20609863 258.69091797 751.5572168 259.08105469 750.88867188 C262.83469672 744.60499385 267.26442845 738.95430598 272.203125 733.55810547 C273.77453752 731.85999895 273.77453752 731.85999895 275.55859375 729.35498047 C275.16981459 725.96378827 273.54750868 723.28046639 271.890625 720.33935547 C271.3344751 719.34814697 270.7783252 718.35693848 270.20532227 717.33569336 C269.60002686 716.26955811 268.99473145 715.20342285 268.37109375 714.10498047 C267.74323975 712.99179443 267.11538574 711.8786084 266.46850586 710.73168945 C261.10556979 701.25237376 255.62864945 691.84069589 250.12109375 682.44482422 C246.42646065 676.13927628 242.77006694 669.81203611 239.12109375 663.47998047 C238.49855713 662.39982666 237.87602051 661.31967285 237.23461914 660.20678711 C235.97282549 658.01701713 234.71118841 655.82715692 233.44970703 653.63720703 C230.32179229 648.20838109 227.19005644 642.7817604 224.05859375 637.35498047 C220.29495456 630.83264772 216.53214753 624.30984285 212.7734375 617.78466797 C206.75112046 607.33291847 200.71190038 596.89198499 194.62109375 586.47998047 C189.19938197 577.2099827 183.8565446 567.89666295 178.53936768 558.56652832 C173.33814246 549.44215207 168.07831497 540.35365273 162.77514648 531.28808594 C156.62092633 520.76413422 150.53489379 510.20117909 144.44970703 499.63720703 C141.32179227 494.20838105 138.19000927 488.78178766 135.05859375 483.35498047 C133.80857496 481.18832464 132.55857497 479.02165797 131.30859375 476.85498047 C130.38046875 475.24623047 130.38046875 475.24623047 129.43359375 473.60498047 C18.80859375 281.85498047 18.80859375 281.85498047 16.93334961 278.60449219 C15.68423857 276.43940976 14.43505246 274.27437065 13.18579102 272.109375 C10.04657066 266.66882341 6.90868812 261.22750831 3.7734375 255.78466797 C-2.80768615 244.3631079 -9.41485582 232.95794139 -16.07543945 221.58251953 C-19.35256828 215.97361432 -22.59473597 210.34625249 -25.8046875 204.69873047 C-26.17097763 204.05483368 -26.53726776 203.41093689 -26.91465759 202.74752808 C-28.71056785 199.58942671 -30.50260996 196.42922372 -32.28881836 193.265625 C-32.93214111 192.13237793 -33.57546387 190.99913086 -34.23828125 189.83154297 C-35.09437988 188.31681396 -35.09437988 188.31681396 -35.96777344 186.77148438 C-37.35327755 184.28607274 -37.35327755 184.28607274 -39.44140625 182.35498047 C-43.08576655 182.65867716 -46.56847834 183.18993371 -50.15820312 183.86865234 C-55.47843758 184.65671801 -60.79238083 184.54093298 -66.16210938 184.5402832 C-68.17209382 184.54245956 -70.18151931 184.560624 -72.19140625 184.57958984 C-78.79980497 184.58946295 -84.96848359 184.37551776 -91.39941406 182.78588867 C-93.74588019 182.21732966 -93.74588019 182.21732966 -97.44140625 182.35498047 Z M-384.44140625 830.35498047 C-384.44140625 831.67498047 -384.44140625 832.99498047 -384.44140625 834.35498047 C-383.87035156 834.67547363 -383.29929687 834.9959668 -382.7109375 835.32617188 C-370.62766343 842.11460903 -358.59579977 848.98186955 -346.63427734 855.98266602 C-336.02493836 862.1909485 -325.37512122 868.32826821 -314.72363281 874.46386719 C-309.29480683 877.59178195 -303.86821344 880.72356495 -298.44140625 883.85498047 C-296.27475042 885.10499926 -294.10808375 886.35499925 -291.94140625 887.60498047 C-261.60807292 905.10498047 -231.27473958 922.60498047 -200.94140625 940.10498047 C-199.86761719 940.72445557 -198.79382813 941.34393066 -197.6875 941.98217773 C-195.53378905 943.22474066 -193.38014258 944.46741536 -191.2265625 945.71020508 C-186.20456363 948.6081267 -181.18197818 951.50501396 -176.15698242 954.3977356 C-174.39095103 955.41445245 -172.62513194 956.43153705 -170.859375 957.44873047 C-168.6540647 958.7189892 -166.44836409 959.98857065 -164.2421875 961.25732422 C-163.23542969 961.83740234 -162.22867188 962.41748047 -161.19140625 963.01513672 C-160.2271875 963.5670166 -159.26296875 964.11889648 -158.26953125 964.6875 C-156.35916666 965.8138631 -154.47354716 966.98311968 -152.61328125 968.19042969 C-151.29070312 969.04338623 -151.29070312 969.04338623 -149.94140625 969.91357422 C-149.16796875 970.43105225 -148.39453125 970.94853027 -147.59765625 971.48168945 C-145.46183368 972.61949365 -145.46183368 972.61949365 -143.31347656 971.63671875 C-140.75158921 969.8826879 -138.5077281 967.85970067 -136.19140625 965.79248047 C-117.39039104 949.6924231 -93.20534268 941.71891189 -68.62890625 941.91748047 C-67.31736572 941.92432861 -66.0058252 941.93117676 -64.65454102 941.93823242 C-54.71714693 942.10232941 -45.84368332 943.18287817 -36.44140625 946.35498047 C-34.73404297 946.91572266 -34.73404297 946.91572266 -32.9921875 947.48779297 C-17.05147689 953.18494635 -3.18407387 962.21796953 8.55859375 974.35498047 C13.42122287 972.94541467 17.51374421 970.78440074 21.80859375 968.16748047 C23.3247829 967.25999642 24.84176263 966.35383241 26.359375 965.44873047 C27.60195068 964.70623047 27.60195068 964.70623047 28.86962891 963.94873047 C33.8852724 960.97595757 38.94277602 958.07558574 43.99609375 955.16748047 C45.10178711 954.53044189 46.20748047 953.89340332 47.34667969 953.23706055 C49.61883457 951.9279739 51.89113384 950.61913785 54.16357422 949.31054688 C59.63029355 946.16165993 65.09434262 943.00814783 70.55859375 939.85498047 C72.72524686 938.60495697 74.89191354 937.354957 77.05859375 936.10498047 C78.13109375 935.48623047 79.20359375 934.86748047 80.30859375 934.22998047 C90.05859375 928.60498047 90.05859375 928.60498047 93.30908203 926.72973633 C95.47416446 925.48062529 97.63920357 924.23143918 99.80419922 922.98217773 C105.24475081 919.84295737 110.68606591 916.70507484 116.12890625 913.56982422 C126.58065574 907.54750718 137.02158923 901.5082871 147.43359375 895.41748047 C156.70359152 889.99576869 166.01691127 884.65293132 175.3470459 879.33575439 C184.45973516 874.14119119 193.53744155 868.88952301 202.59033203 863.59130859 C211.2561725 858.52187158 219.95152659 853.50461533 228.65673828 848.50317383 C230.66931677 847.34508814 232.67936868 846.18259739 234.68652344 845.01513672 C236.61437515 843.90077157 238.55283133 842.80456949 240.50097656 841.72607422 C241.86367676 840.95457031 241.86367676 840.95457031 243.25390625 840.16748047 C244.06102051 839.72017578 244.86813477 839.27287109 245.69970703 838.81201172 C247.6894118 837.49655698 247.6894118 837.49655698 248.39013672 835.36669922 C248.70897153 833.14896627 248.70897153 833.14896627 247.55859375 830.35498047 C38.99859375 830.35498047 -169.56140625 830.35498047 -384.44140625 830.35498047 Z " fill="#E534AB" transform="translate(668.44140625,36.64501953125)"/>
</svg>
