<?xml version="1.0" encoding="UTF-8"?>
<svg version="1.1" xmlns="http://www.w3.org/2000/svg" width="225" height="225">
<path d="M0 0 C74.25 0 148.5 0 225 0 C225 74.25 225 148.5 225 225 C150.75 225 76.5 225 0 225 C0 150.75 0 76.5 0 0 Z " fill="#697168" transform="translate(0,0)"/>
<path d="M0 0 C1.98 0 3.96 0 6 0 C6 0.33 6 0.66 6 1 C112.92 1.495 112.92 1.495 222 2 C222.33 3.98 222.66 5.96 223 8 C222.34 8.66 221.68 9.32 221 10 C220.63473747 12.32854865 220.30649316 14.66298962 220 17 C219.35050775 19.33817209 218.68255989 21.67126625 218 24 C217.68068302 25.51941665 217.36846223 27.04033792 217.0625 28.5625 C216.23493189 32.40710778 214.85672654 35.51863774 213 39 C212.67 39.99 212.34 40.98 212 42 C210.41405885 46.75782345 208.63179459 50.53328698 205 54 C204.67 54.99 204.34 55.98 204 57 C201.9375 58.6875 201.9375 58.6875 200 60 C200.33 60.66 200.66 61.32 201 62 C197.98112756 65.48331435 195.43090471 66.79157144 191 68 C191 68.33 191 68.66 191 69 C188.525 69.495 188.525 69.495 186 70 C186 70.33 186 70.66 186 71 C167.21183992 71.13195582 148.42366987 71.26239878 129.63548756 71.39115143 C120.90729602 71.45099786 112.1791081 71.5112974 103.45092773 71.57275391 C95.82301987 71.62646197 88.19510611 71.67922811 80.56718463 71.73096704 C76.54685309 71.75826644 72.52652543 71.7859664 68.50620461 71.81480408 C45.67013377 71.97820208 22.83680496 72.01922897 0 72 C0 48.24 0 24.48 0 0 Z " fill="#3A3E3B" transform="translate(0,153)"/>
<path d="M0 0 C74.25 0 148.5 0 225 0 C225 26.07 225 52.14 225 79 C200.53965408 79.06766299 176.07938367 79.12295029 151.61896801 79.15543652 C140.26213931 79.17091987 128.90537278 79.19203741 117.54858398 79.22631836 C107.6525426 79.2561758 97.75654623 79.27556431 87.86046106 79.28226548 C82.61825859 79.28618395 77.37618494 79.29542328 72.13402367 79.31719017 C67.20356576 79.33749761 62.27329018 79.34384547 57.34279442 79.33932304 C55.52991751 79.34015082 53.71703472 79.34615056 51.90419388 79.35761642 C49.43522618 79.37247089 46.96695326 79.36897972 44.49797058 79.36076355 C43.77521083 79.36950207 43.05245107 79.3782406 42.3077895 79.38724393 C37.4374249 79.34322285 37.4374249 79.34322285 35.21887684 77.60245228 C34.81664748 77.07364303 34.41441813 76.54483377 34 76 C33.01 75.34 32.02 74.68 31 74 C32.25179141 73.99918285 32.25179141 73.99918285 33.52887154 73.99834919 C53.83496501 73.98338178 74.14083892 73.94093655 94.44680977 73.86790943 C104.26664845 73.83325658 114.0863467 73.80790352 123.90625 73.80444336 C132.46531466 73.80140388 141.02412927 73.78091557 149.58309734 73.73947543 C154.11506126 73.71814224 158.64666965 73.70554642 163.17868423 73.71384621 C167.44537988 73.72138439 171.71135502 73.70557354 175.97791862 73.67193985 C177.54278248 73.6637037 179.10771795 73.66396011 180.672575 73.67340279 C182.81268403 73.68503698 184.95043636 73.66589414 187.09036255 73.63923645 C188.88509349 73.63508838 188.88509349 73.63508838 190.71608162 73.63085651 C195.0859327 72.79138711 196.81722291 71.04880582 200 68 C199.17393627 67.99761165 198.34787254 67.99522329 197.49677658 67.99276257 C177.40839011 67.93365869 157.32012407 67.85813829 137.23186874 67.76428509 C127.51738315 67.7192956 117.80293448 67.67988824 108.08837891 67.65356445 C99.62240289 67.63060988 91.1565434 67.59724041 82.69065976 67.55129844 C78.2069101 67.52733186 73.72327609 67.50862564 69.23946381 67.50238609 C65.02052841 67.49635072 60.80188906 67.47640727 56.58306313 67.44572449 C55.03348405 67.43691935 53.48386632 67.43322679 51.93426323 67.43499184 C49.8202317 67.43663973 47.70710788 67.41998846 45.59320068 67.39872742 C44.40961849 67.39411845 43.2260363 67.38950949 42.00658798 67.38476086 C38.6973413 66.96126798 37.44533522 66.18854762 35 64 C34.175 63.54625 33.35 63.0925 32.5 62.625 C30 61 30 61 26 56 C84.08 55.67 142.16 55.34 202 55 C202 54.67 202 54.34 202 54 C113.395 53.505 113.395 53.505 23 53 C22.67 52.01 22.34 51.02 22 50 C82.72 49.67 143.44 49.34 206 49 C208.475 43.555 208.475 43.555 211 38 C146.32 37.67 81.64 37.34 15 37 C14.505 35.515 14.505 35.515 14 34 C112.505 33.505 112.505 33.505 213 33 C213 32.67 213 32.34 213 32 C113.505 31.505 113.505 31.505 12 31 C12 30.01 12 29.02 12 28 C112.485 27.505 112.485 27.505 215 27 C215 26.67 215 26.34 215 26 C147.68 25.67 80.36 25.34 11 25 C11 24.67 11 24.34 11 24 C78.65 23.67 146.3 23.34 216 23 C216 22.67 216 22.34 216 22 C148.02 21.67 80.04 21.34 10 21 C10 20.67 10 20.34 10 20 C78.31 19.67 146.62 19.34 217 19 C217 18.67 217 18.34 217 18 C148.36 17.67 79.72 17.34 9 17 C9 16.67 9 16.34 9 16 C79.62 15.67 150.24 15.34 223 15 C223 14.34 223 13.68 223 13 C221.35 13 219.7 13 218 13 C218 12.67 218 12.34 218 12 C148.7 11.67 79.4 11.34 8 11 C8 10.67 8 10.34 8 10 C6.865625 9.87625 5.73125 9.7525 4.5625 9.625 C2.7990625 9.315625 2.7990625 9.315625 1 9 C0 7 0 7 0 0 Z " fill="#A2AAA2" transform="translate(0,146)"/>
<path d="M0 0 C74.25 0 148.5 0 225 0 C225 11 225 11 224 13 C222.02 13 220.04 13 218 13 C218 12.67 218 12.34 218 12 C148.7 11.67 79.4 11.34 8 11 C8 10.67 8 10.34 8 10 C6.865625 9.87625 5.73125 9.7525 4.5625 9.625 C2.7990625 9.315625 2.7990625 9.315625 1 9 C0 7 0 7 0 0 Z " fill="#8F908F" transform="translate(0,146)"/>
<path d="M0 0 C74.25 0 148.5 0 225 0 C225 0.99 225 1.98 225 3 C150.75 3 76.5 3 0 3 C0 2.01 0 1.02 0 0 Z " fill="#4F504F" transform="translate(0,143)"/>
<path d="M0 0 C74.25 0 148.5 0 225 0 C225 0.99 225 1.98 225 3 C150.75 3 76.5 3 0 3 C0 2.01 0 1.02 0 0 Z " fill="#80927F" transform="translate(0,0)"/>
<path d="M0 0 C1.98 0 3.96 0 6 0 C6 0.99 6 1.98 6 3 C4.02 3 2.04 3 0 3 C0 2.01 0 1.02 0 0 Z " fill="#0A2B0B" transform="translate(0,0)"/>
</svg>
