<?xml version="1.0" encoding="UTF-8"?>
<svg version="1.1" xmlns="http://www.w3.org/2000/svg" width="32" height="32">
<path d="M0 0 C0.86625 0.12375 1.7325 0.2475 2.625 0.375 C5.55421807 4.53628473 7.62356431 9.29129741 9.8125 13.875 C10.36454102 14.99455078 10.36454102 14.99455078 10.92773438 16.13671875 C12.77307842 20.00543632 14.15697634 22.97965448 13.625 27.375 C-0.55318182 33.74071429 -0.55318182 33.74071429 -8.375 32.375 C-11.5936535 29.16318016 -14.17794991 25.59232258 -14.58764648 20.98217773 C-14.34606953 18.02029454 -13.64344889 16.65502744 -12.00390625 14.203125 C-11.51212891 13.45675781 -11.02035156 12.71039063 -10.51367188 11.94140625 C-9.99353516 11.17699219 -9.47339844 10.41257812 -8.9375 9.625 C-8.42123047 8.84511719 -7.90496094 8.06523437 -7.37304688 7.26171875 C-2.84080758 0.44854856 -2.84080758 0.44854856 0 0 Z " fill="#193E54" transform="translate(16.375,-0.375)"/>
<path d="M0 0 C0.86625 0.12375 1.7325 0.2475 2.625 0.375 C5.55421807 4.53628473 7.62356431 9.29129741 9.8125 13.875 C10.36454102 14.99455078 10.36454102 14.99455078 10.92773438 16.13671875 C12.77307842 20.00543632 14.15697634 22.97965448 13.625 27.375 C-0.55318182 33.74071429 -0.55318182 33.74071429 -8.375 32.375 C-11.5936535 29.16318016 -14.17794991 25.59232258 -14.58764648 20.98217773 C-14.34606953 18.02029454 -13.64344889 16.65502744 -12.00390625 14.203125 C-11.51212891 13.45675781 -11.02035156 12.71039063 -10.51367188 11.94140625 C-9.99353516 11.17699219 -9.47339844 10.41257812 -8.9375 9.625 C-8.42123047 8.84511719 -7.90496094 8.06523437 -7.37304688 7.26171875 C-2.84080758 0.44854856 -2.84080758 0.44854856 0 0 Z M-1.375 2.375 C-3.24974981 5.11148317 -5.09597244 7.8660732 -6.9375 10.625 C-7.73704102 11.79095703 -7.73704102 11.79095703 -8.55273438 12.98046875 C-9.05224609 13.73457031 -9.55175781 14.48867187 -10.06640625 15.265625 C-10.53248291 15.95688477 -10.99855957 16.64814453 -11.47875977 17.36035156 C-12.58409361 19.8450192 -12.32207412 20.87220578 -11.375 23.375 C-10.73080847 24.64786037 -10.04300566 25.89963567 -9.3125 27.125 C-8.673125 28.1975 -8.03375 29.27 -7.375 30.375 C-0.48668659 31.00121031 5.21402255 28.73306067 11.625 26.375 C11.0399734 20.9001988 9.12486538 16.48519436 6.8125 11.5625 C6.46896484 10.78712891 6.12542969 10.01175781 5.77148438 9.21289062 C5.42794922 8.47619141 5.08441406 7.73949219 4.73046875 6.98046875 C4.42262451 6.31168701 4.11478027 5.64290527 3.79760742 4.95385742 C2.71155423 3.17932161 2.71155423 3.17932161 0.4934082 2.6496582 C-0.1231665 2.559021 -0.73974121 2.46838379 -1.375 2.375 Z " fill="#F1F3F4" transform="translate(16.375,-0.375)"/>
<path d="M0 0 C3.1474731 2.64652393 4.49972268 5.79939195 6.1875 9.5 C6.71730469 10.6446875 7.24710938 11.789375 7.79296875 12.96875 C9 16 9 16 9 19 C7.23050388 19.50471197 5.45934777 20.00360685 3.6875 20.5 C2.70136719 20.7784375 1.71523438 21.056875 0.69921875 21.34375 C-2 22 -2 22 -5 22 C-4.35259036 17.15687791 -3.51971256 12.40745191 -2.5 7.625 C-2.2421875 6.40039062 -1.984375 5.17578125 -1.71875 3.9140625 C-1 1 -1 1 0 0 Z " fill="#F3F5F6" transform="translate(17,6)"/>
<path d="M0 0 C3.08519776 3.08519776 4.38120486 6.97853048 6.125 10.9375 C6.49753906 11.76185547 6.87007812 12.58621094 7.25390625 13.43554688 C7.60582031 14.22896484 7.95773438 15.02238281 8.3203125 15.83984375 C8.64273926 16.56550537 8.96516602 17.29116699 9.29736328 18.03881836 C10 20 10 20 10 23 C8.40139351 23.55786268 6.79582095 24.09579568 5.1875 24.625 C4.29417969 24.92664063 3.40085937 25.22828125 2.48046875 25.5390625 C0 26 0 26 -3 24 C0.87684087 22.80712589 3.91621923 22 8 22 C5.36 16.06 2.72 10.12 0 4 C-0.66 4 -1.32 4 -2 4 C-2 3.34 -2 2.68 -2 2 C-1.34 2 -0.68 2 0 2 C0 1.34 0 0.68 0 0 Z " fill="#36576A" transform="translate(18,3)"/>
<path d="M0 0 C0.66 0 1.32 0 2 0 C2 1.65 2 3.3 2 5 C-4.59298265 7.96011466 -10.63324053 10.35935412 -18 10 C-12.37726933 7.05476012 -6.2718113 5.01158247 0 4 C0 2.68 0 1.36 0 0 Z " fill="#FAFBFC" transform="translate(28,22)"/>
<path d="M0 0 C4 4.75 4 4.75 4 7 C5.65 7 7.3 7 9 7 C7.1875 8.0625 7.1875 8.0625 5 9 C2 8 2 8 0.25 5.0625 C-0.1625 4.051875 -0.575 3.04125 -1 2 C-0.67 1.34 -0.34 0.68 0 0 Z " fill="#E5E9EB" transform="translate(5,23)"/>
<path d="M0 0 C-3.83325617 2.70582788 -6.32538149 3.32613618 -11 3 C-9.66666667 2.33333333 -8.33333333 1.66666667 -7 1 C-6.319375 0.608125 -5.63875 0.21625 -4.9375 -0.1875 C-3 -1 -3 -1 0 0 Z " fill="#F3F5F6" transform="translate(21,29)"/>
<path d="M0 0 C-1.45463481 0.38909985 -2.91391207 0.76088029 -4.375 1.125 C-5.59316406 1.43824219 -5.59316406 1.43824219 -6.8359375 1.7578125 C-7.55007812 1.83773438 -8.26421875 1.91765625 -9 2 C-9.66 1.34 -10.32 0.68 -11 0 C-4.03571429 -2.41071429 -4.03571429 -2.41071429 0 0 Z " fill="#4E6B7B" transform="translate(26,27)"/>
</svg>
