<?xml version="1.0" encoding="UTF-8"?>
<svg version="1.1" xmlns="http://www.w3.org/2000/svg" width="866" height="650">
<path d="M0 0 C285.78 0 571.56 0 866 0 C866 214.5 866 429 866 650 C580.22 650 294.44 650 0 650 C0 435.5 0 221 0 0 Z " fill="#FEFEFE" transform="translate(0,0)"/>
<path d="M0 0 C7.93091267 6.11221921 15.4955856 12.52779846 22.86328125 19.30859375 C25.10527706 21.35949098 27.37759779 23.36102533 29.6796875 25.34375 C33.44206212 28.60862054 36.9575797 32.08648917 40.4296875 35.65625 C44.1370223 34.08709899 46.63860614 31.77729746 49.5546875 29.03125 C54.65750939 24.30324988 59.94931488 19.93733684 65.4296875 15.65625 C66.70382111 14.62976971 67.97719656 13.60234795 69.25 12.57421875 C98.60100817 -10.93890824 136.72993442 -37.64026007 176.4296875 -33.34375 C193.88135697 -30.5843504 207.56323852 -22.04452809 218.3984375 -8.1953125 C239.68721094 21.69085021 240.60398281 60.8755104 235.09423828 95.84375 C233.11542328 107.1961288 230.71469522 118.4744484 228.26953125 129.734375 C228.11435532 130.46039917 227.95917938 131.18642334 227.79930115 131.93444824 C226.97367319 135.67068355 225.97594515 139.15338991 224.4296875 142.65625 C225.5640625 142.8625 226.6984375 143.06875 227.8671875 143.28125 C250.92217678 148.52263005 274.70282836 159.41617256 295.4296875 170.65625 C296.09742188 171.01283691 296.76515625 171.36942383 297.453125 171.73681641 C322.21455412 185.00926459 346.28524832 202.94940695 355.4296875 230.59375 C360.18185174 246.51254596 357.26215438 263.74892439 349.8046875 278.46875 C333.08695942 306.10242392 306.39726244 322.963343 277.4296875 335.65625 C276.38578857 336.11427002 276.38578857 336.11427002 275.32080078 336.58154297 C238.30520472 352.65625 238.30520472 352.65625 225.4296875 352.65625 C225.70232422 353.49542969 225.70232422 353.49542969 225.98046875 354.3515625 C230.51861551 368.82708705 232.36958415 383.34746517 234.03320312 398.37231445 C234.30582442 400.63033725 234.61385278 402.88427722 234.95117188 405.13354492 C236.4459725 415.16116576 236.82981125 424.96798853 236.8046875 435.09375 C236.80387177 436.33658249 236.80387177 436.33658249 236.80303955 437.60452271 C236.7445568 457.0617349 235.22742371 475.99429595 226.4296875 493.65625 C225.99011719 494.54957031 225.55054688 495.44289063 225.09765625 496.36328125 C216.8748888 511.41070872 204.00920858 521.47754085 187.8671875 526.96484375 C161.65921685 534.39883543 132.90628953 525.48156044 109.82495117 512.86401367 C94.79414693 504.29116287 80.58803645 493.57968256 67.88671875 481.86328125 C65.32816657 479.56505871 62.68229238 477.42344102 59.9921875 475.28125 C54.83518768 471.12332706 50.2444938 466.59550472 45.64453125 461.84375 C43.62858941 459.62639707 43.62858941 459.62639707 41.4296875 458.65625 C41.22859375 459.19121094 41.0275 459.72617187 40.8203125 460.27734375 C38.83728385 463.66965961 36.05686884 466.09744754 33.1796875 468.71875 C32.55562012 469.29165771 31.93155273 469.86456543 31.28857422 470.45483398 C25.50841755 475.69731853 19.47855973 480.55519286 13.26123047 485.26611328 C11.36248648 486.70725541 9.47607135 488.16361892 7.58984375 489.62109375 C-1.80586855 496.82997319 -11.51578816 503.40335957 -21.5703125 509.65625 C-22.61832031 510.31496094 -23.66632813 510.97367188 -24.74609375 511.65234375 C-46.9469093 525.1410666 -74.30279233 534.58053603 -100.44921875 529.97265625 C-117.70083378 524.96948029 -131.79554669 513.68647904 -140.66796875 498.0625 C-164.92321699 453.08218938 -153.93003819 399.47779909 -141.5703125 352.65625 C-142.95283203 352.52863281 -142.95283203 352.52863281 -144.36328125 352.3984375 C-149.76893318 351.61634318 -154.77464636 349.65339448 -159.8828125 347.78125 C-160.97658203 347.38196289 -162.07035156 346.98267578 -163.19726562 346.57128906 C-194.57852137 334.9621936 -227.4924623 321.69251497 -251.5703125 297.65625 C-252.82908203 296.41488281 -252.82908203 296.41488281 -254.11328125 295.1484375 C-267.94336132 280.79528329 -275.14863803 263.54568719 -274.77734375 243.52734375 C-273.6156498 221.80585869 -258.8274007 202.66832724 -243.22021484 188.60083008 C-226.82832269 174.32914421 -206.53846937 164.81436329 -186.5703125 156.65625 C-185.92465332 156.38458008 -185.27899414 156.11291016 -184.61376953 155.83300781 C-153.23445517 142.65625 -153.23445517 142.65625 -140.5703125 142.65625 C-140.85165039 141.78987915 -140.85165039 141.78987915 -141.13867188 140.90600586 C-149.38104072 114.62437195 -151.82226223 86.38062565 -151.8828125 58.96875 C-151.88648834 58.17358978 -151.89016418 57.37842957 -151.89395142 56.55917358 C-151.92785907 42.5531372 -151.40354626 28.43607447 -146.9453125 15.03125 C-146.68878906 14.24202148 -146.43226563 13.45279297 -146.16796875 12.63964844 C-140.10791606 -5.10252003 -129.38319738 -18.40708298 -112.6953125 -27.15625 C-74.48720517 -45.61940009 -30.72486604 -23.31448475 0 0 Z " fill="#032A3B" transform="translate(391.5703125,75.34375)"/>
<path d="M0 0 C1.93091018 -0.0027001 3.86181904 -0.00658681 5.79272461 -0.01159668 C9.82386319 -0.01746736 13.85464531 -0.00900758 17.88574219 0.00976562 C23.02667117 0.03255361 28.16676456 0.01941742 33.30766296 -0.00452423 C37.290224 -0.0190482 41.27259024 -0.01434611 45.25515747 -0.00401306 C47.14958803 -0.00136397 49.04403686 -0.00455077 50.93844604 -0.01393127 C64.33117567 -0.06571056 76.11649592 0.52457635 86.625 9.9296875 C92.80015739 16.24778835 96.54192529 24.31108541 100.69140625 32.01318359 C102.98262709 36.22109879 105.3659566 40.37543249 107.75 44.53125 C108.23952148 45.3871875 108.72904297 46.243125 109.23339844 47.125 C112.13405969 52.19052699 115.0539431 57.24460785 117.984375 62.29296875 C118.65801031 63.45504837 119.33159436 64.61715771 120.00512695 65.77929688 C121.30045321 68.01262894 122.59832208 70.24448895 123.89916992 72.47460938 C136.17844009 93.64838383 136.17844009 93.64838383 135.0625 105.53125 C132.89046565 112.68278072 129.23615098 119.27391544 125.625 125.78125 C125.10276855 126.73088623 124.58053711 127.68052246 124.04248047 128.65893555 C119.86327671 136.20675918 115.50730913 143.64279161 111.06958008 151.04101562 C108.09557411 156.01761635 105.2179026 161.02911114 102.4453125 166.12109375 C101.83864746 167.23057373 101.23198242 168.34005371 100.60693359 169.4831543 C99.44983089 171.60986183 98.30347301 173.74246792 97.17041016 175.88208008 C91.96172563 185.43394591 85.68898865 194.8035736 75.0625 198.53125 C69.17436904 200.17450042 63.58431867 200.82638819 57.48852539 200.8059082 C56.28169853 200.8135746 56.28169853 200.8135746 55.05049133 200.82139587 C52.42030161 200.83516962 49.7903775 200.83434456 47.16015625 200.83203125 C45.31367396 200.83592457 43.46719255 200.84026053 41.62071228 200.84501648 C37.76184172 200.85245219 33.90306271 200.85220646 30.04418945 200.84692383 C25.12072161 200.84112924 20.19762997 200.8580729 15.27422428 200.8812685 C11.46416567 200.89606145 7.65419655 200.89687006 3.8441143 200.89375877 C2.0297922 200.89426907 0.21546469 200.89945161 -1.59882927 200.90957069 C-15.37875182 200.97701208 -26.48026819 200.53609972 -37.1328125 190.7109375 C-42.10763711 185.68341761 -45.24161251 179.55445609 -48.625 173.40625 C-49.32928105 172.14760029 -50.03478245 170.88963272 -50.74145508 169.63232422 C-52.15597346 167.11268115 -53.56492504 164.59006923 -54.96875 162.06445312 C-57.65190502 157.24139435 -60.38525339 152.44733209 -63.125 147.65625 C-63.59502441 146.82947754 -64.06504883 146.00270508 -64.54931641 145.15087891 C-67.13260552 140.6215061 -69.76829007 136.12938168 -72.4609375 131.6640625 C-73.34616089 130.19042236 -73.34616089 130.19042236 -74.24926758 128.68701172 C-75.37927566 126.81149139 -76.51662232 124.94036393 -77.6628418 123.07470703 C-82.09195366 115.71942813 -85.36397006 108.76696263 -85.375 100.03125 C-85.39433594 99.0103125 -85.41367187 97.989375 -85.43359375 96.9375 C-84.11664313 87.89513036 -78.4075739 79.74462364 -74 71.90625 C-73.33063445 70.71018638 -72.66153067 69.51397622 -71.99267578 68.31762695 C-70.29993558 65.2925418 -68.60209077 62.27035524 -66.902771 59.2489624 C-65.43839292 56.6430824 -63.97950279 54.03413194 -62.51953125 51.42578125 C-59.8834721 46.72509409 -57.22260803 42.03911533 -54.54785156 37.36035156 C-53.44391071 35.42092364 -52.34726411 33.47733083 -51.25683594 31.53027344 C-49.58273399 28.54224637 -47.88727507 25.56723053 -46.1875 22.59375 C-45.6929834 21.70002686 -45.1984668 20.80630371 -44.68896484 19.88549805 C-39.51745381 10.94369545 -33.32505287 4.72184462 -23.44805908 1.32997131 C-15.76484911 -0.41811024 -7.84047726 -0.03882351 0 0 Z " fill="#FDD84B" transform="translate(405.9375,222.46875)"/>
<path d="M0 0 C0.72960937 -0.04511719 1.45921875 -0.09023438 2.2109375 -0.13671875 C8.91303081 2.15153641 12.52386986 10.60361676 15.75 16.4375 C26.34944129 35.15468736 38.20052157 53.13545904 50.625 70.6875 C51.55248902 72.01013227 52.47953307 73.33307664 53.40625 74.65625 C61.15431831 85.7027675 69.05376008 96.57268539 77.5390625 107.0703125 C79.45500312 109.47420803 81.3265164 111.9076224 83.18676758 114.35473633 C87.10943003 119.5147641 91.14672281 124.52433563 95.375 129.4375 C106.51662564 142.52001277 106.51662564 142.52001277 106.8125 148.4375 C98.77569308 170.43297158 55.48755343 191.9533509 35.3359375 201.36987305 C20.42820316 208.06644725 4.93094308 213.26506833 -11.265625 207.6015625 C-14.27993472 206.29536162 -16.7776152 204.69457007 -19.375 202.6875 C-20.344375 202.006875 -21.31375 201.32625 -22.3125 200.625 C-33.06477351 191.33256519 -38.83442496 174.44472409 -40.375 160.6875 C-40.74247536 154.56852004 -40.71342201 148.44002964 -40.6875 142.3125 C-40.68634186 141.46912079 -40.68518372 140.62574158 -40.68399048 139.75680542 C-40.64887534 126.83581503 -39.91062463 114.38373475 -37.375 101.6875 C-37.1584375 100.45257813 -36.941875 99.21765625 -36.71875 97.9453125 C-33.65597585 81.28236264 -29.34791562 64.69567442 -24.01367188 48.61816406 C-23.34627562 46.60066804 -22.69596117 44.57814309 -22.046875 42.5546875 C-19.14024656 33.57314475 -15.99154371 24.67821512 -12.75 15.8125 C-12.3777832 14.77158203 -12.00556641 13.73066406 -11.62207031 12.65820312 C-11.25952148 11.68044922 -10.89697266 10.70269531 -10.5234375 9.6953125 C-10.20552246 8.82535645 -9.88760742 7.95540039 -9.56005859 7.05908203 C-7.41385257 2.76401707 -4.91453788 0.11208595 0 0 Z " fill="#FC4254" transform="translate(303.375,369.3125)"/>
<path d="M0 0 C5.93560275 4.93905089 9.99464817 10.18501864 13.40234375 17.08203125 C13.85351562 17.9740625 14.3046875 18.86609375 14.76953125 19.78515625 C27.35157601 47.0338449 22.06985115 81.7310863 16.40234375 110.14453125 C16.2709198 110.80408813 16.13949585 111.46364502 16.00408936 112.14318848 C13.69536841 123.60043564 13.69536841 123.60043564 11.40234375 129.08203125 C10.99706878 130.82526881 10.62550868 132.57649538 10.27734375 134.33203125 C-2.03607419 189.00360692 -2.03607419 189.00360692 -13.91015625 201.51953125 C-17.1951753 203.42942605 -18.85500507 203.70580645 -22.59765625 203.08203125 C-26.39814811 200.46902962 -28.61038214 197.89344342 -30.8671875 193.8984375 C-31.44178711 192.89482178 -32.01638672 191.89120605 -32.60839844 190.85717773 C-33.20297852 189.79700439 -33.79755859 188.73683105 -34.41015625 187.64453125 C-35.66047223 185.45907096 -36.91176579 183.27416965 -38.1640625 181.08984375 C-38.75977051 180.04473633 -39.35547852 178.99962891 -39.96923828 177.92285156 C-45.6890393 167.94450004 -51.99994481 158.36757576 -58.42333984 148.83398438 C-59.47711747 147.26186208 -60.51683162 145.68033467 -61.5546875 144.09765625 C-67.14356324 135.57903302 -73.11794299 127.35188239 -79.11572266 119.11914062 C-80.36862295 117.39686714 -81.61476155 115.66967778 -82.859375 113.94140625 C-94.23202568 98.16271849 -106.43680827 83.01471144 -119.08374023 68.2421875 C-120.26294763 66.86218207 -121.43080261 65.47249796 -122.59765625 64.08203125 C-123.18289063 63.38464844 -123.768125 62.68726563 -124.37109375 61.96875 C-126.39923376 58.84903145 -126.32884305 55.61018504 -125.59765625 52.08203125 C-123.66015625 49.58203125 -123.66015625 49.58203125 -120.59765625 47.08203125 C-120.02402344 46.54578125 -119.45039063 46.00953125 -118.859375 45.45703125 C-111.2780141 38.39090847 -102.90611025 32.25521077 -94.59765625 26.08203125 C-93.89012207 25.55496582 -93.18258789 25.02790039 -92.45361328 24.48486328 C-69.46740709 7.4788083 -28.1216659 -20.76351572 0 0 Z " fill="#FD4254" transform="translate(581.59765625,75.91796875)"/>
<path d="M0 0 C0.79792969 -0.02835937 1.59585938 -0.05671875 2.41796875 -0.0859375 C5.79259649 0.56366458 7.40536706 1.95560663 9.8125 4.375 C13.87353405 13.99323854 14.12922503 26.15751179 15.41601562 36.44824219 C15.68771132 38.45383827 15.99560438 40.45476724 16.33398438 42.45019531 C17.92993325 52.14887389 18.18485265 61.68268601 18.18310547 71.49658203 C18.18748282 74.23923723 18.22395042 76.98028323 18.26171875 79.72265625 C18.37724341 97.93578079 15.55794243 117.50756743 2.41796875 131.17578125 C-8.06743535 140.02627976 -19.95084681 141.48222616 -33.1875 140.375 C-64.96746834 135.61571655 -91.86277048 114.00433508 -114.640625 92.80419922 C-116.22843481 91.33717923 -117.83052641 89.88739414 -119.4375 88.44140625 C-120.23812866 87.71800049 -120.23812866 87.71800049 -121.05493164 86.97998047 C-122.53365656 85.64496618 -124.01479666 84.31262845 -125.49609375 82.98046875 C-128.29792357 80.2681023 -130.70758306 77.3815554 -133.1875 74.375 C-134.83045481 72.68495413 -136.49767071 71.01817757 -138.1875 69.375 C-144.87028867 62.8602144 -151.21513049 56.35798788 -157.03125 49.03515625 C-159.22541317 46.32822669 -161.52161026 43.75661713 -163.875 41.1875 C-175.57327117 28.21901375 -175.57327117 28.21901375 -175.1875 20.375 C-172.8125 17.4375 -172.8125 17.4375 -170.1875 15.375 C-169.8575 15.045 -169.5275 14.715 -169.1875 14.375 C-167.34283464 14.23226832 -165.49286598 14.1576539 -163.64331055 14.10961914 C-161.85699471 14.05935326 -161.85699471 14.05935326 -160.03459167 14.0080719 C-158.72766861 13.97575974 -157.42074554 13.94344757 -156.07421875 13.91015625 C-154.70781314 13.87213007 -153.34142423 13.83349936 -151.97505188 13.79429626 C-146.89014917 13.64957288 -141.8050114 13.51408805 -136.7197876 13.38116455 C-110.83333873 12.70429289 -85.03274862 11.6696304 -59.328125 8.296875 C-54.5088346 7.6714709 -49.68787183 7.06263033 -44.86491394 6.46635437 C-41.33239877 6.0289368 -37.80050131 5.58666184 -34.26870728 5.14346313 C-32.52211052 4.92480839 -30.7753474 4.70747801 -29.02841187 4.49154663 C-26.55867083 4.18539068 -24.08982738 3.87275713 -21.62109375 3.55859375 C-20.52248016 3.42429962 -20.52248016 3.42429962 -19.40167236 3.28729248 C-12.88885387 2.44699526 -6.55368223 0.10691162 0 0 Z " fill="#FD4254" transform="translate(585.1875,438.625)"/>
<path d="M0 0 C4.90613531 3.65006824 9.38634664 7.68656848 13.8203125 11.890625 C15.08536862 13.00140599 16.35608824 14.10577522 17.6328125 15.203125 C30.74333299 26.65508567 43.54207179 38.60919312 54.8203125 51.890625 C56.15016851 53.39370875 57.48366385 54.89357852 58.8203125 56.390625 C59.83351563 57.53144531 59.83351563 57.53144531 60.8671875 58.6953125 C62.06117785 60.03735765 63.25832645 61.37661191 64.4609375 62.7109375 C66.2766317 64.74698294 68.04901279 66.81576922 69.8203125 68.890625 C70.30677246 69.44588867 70.79323242 70.00115234 71.29443359 70.57324219 C72.96957485 72.49556831 74.61479692 74.44080435 76.2578125 76.390625 C77.07523926 77.31609131 77.07523926 77.31609131 77.90917969 78.26025391 C80.62774693 81.54107422 82.17442517 83.86758023 82.28125 88.20703125 C81.8203125 91.890625 81.8203125 91.890625 80.0078125 94.328125 C76.92145789 96.532664 74.43389017 97.01498529 70.73999023 97.04833984 C69.91311203 97.05874298 69.08623383 97.06914612 68.23429871 97.0798645 C66.88275444 97.09060501 66.88275444 97.09060501 65.50390625 97.1015625 C63.544587 97.1272252 61.58527731 97.15362552 59.62597656 97.18066406 C58.07094421 97.20054382 58.07094421 97.20054382 56.48449707 97.2208252 C10.88554785 97.8539283 -35.06219935 101.07836557 -79.96191406 109.36669922 C-95.81804454 112.25789198 -95.81804454 112.25789198 -100.5546875 109.515625 C-104.93826602 102.43445969 -105.95592972 93.48957739 -107.2421875 85.390625 C-107.49597168 83.79782715 -107.49597168 83.79782715 -107.75488281 82.17285156 C-108.0886201 80.04246306 -108.41736447 77.91128544 -108.74072266 75.77929688 C-109.00269914 74.05532258 -109.27095469 72.33225641 -109.55224609 70.61132812 C-113.94401727 43.48606876 -115.68524438 7.31211716 -99.1796875 -16.109375 C-74.27579374 -48.6669477 -24.1280078 -17.51782708 0 0 Z " fill="#FD4254" transform="translate(377.1796875,97.109375)"/>
<path d="M0 0 C2.33968492 3.79190314 2.3089298 5.50509104 1.8125 9.9375 C0.38259816 13.26687452 -1.48184665 16.29088852 -3.375 19.375 C-4.49062333 21.26163785 -5.60381876 23.14971307 -6.71484375 25.0390625 C-7.58085205 26.50134277 -7.58085205 26.50134277 -8.46435547 27.99316406 C-16.74999514 42.15083117 -24.20519723 56.78206097 -31.5625 71.4375 C-32.05876892 72.4221373 -32.05876892 72.4221373 -32.56506348 73.42666626 C-36.81824123 81.88038081 -40.77500362 90.41905811 -44.51953125 99.10961914 C-46.04312394 102.63502252 -47.65522423 106.11399984 -49.2890625 109.58984375 C-52.32511782 116.12370038 -54.96820091 122.78068041 -57.5625 129.5 C-58.52082083 131.94922364 -59.47915426 134.39844236 -60.4375 136.84765625 C-62.14880605 141.2426552 -63.83652995 145.64529096 -65.5 150.05859375 C-65.85143066 150.97503662 -66.20286133 151.89147949 -66.56494141 152.83569336 C-67.20993971 154.51796132 -67.8432666 156.20477129 -68.46240234 157.89672852 C-70.22180202 162.44766311 -71.74161533 165.47193564 -76.1875 167.9375 C-81.78683754 168.87883791 -86.86749184 166.57869911 -92.0625 164.6875 C-92.92230469 164.38714844 -93.78210938 164.08679688 -94.66796875 163.77734375 C-99.40640674 162.08761245 -103.87884908 160.17201867 -108.34277344 157.85693359 C-112.13578987 155.96644923 -116.16154844 154.63560207 -120.13671875 153.18359375 C-123.04742368 151.99471427 -125.50221445 150.558571 -128.1875 148.9375 C-130.52027757 147.93620422 -132.85364384 146.93627918 -135.1875 145.9375 C-154.46014485 135.72367764 -174.19214836 123.63383639 -183.1875 102.9375 C-183.620625 101.968125 -184.05375 100.99875 -184.5 100 C-187.17944183 88.06430459 -183.14614969 78.58475289 -178.1875 67.9375 C-177.5275 67.9375 -176.8675 67.9375 -176.1875 67.9375 C-175.960625 67.23625 -175.73375 66.535 -175.5 65.8125 C-165.45369585 43.80630996 -132.42419279 30.67968097 -111.10546875 22.60546875 C-99.58925115 18.33683781 -88.03870878 14.50251514 -76.14306641 11.44628906 C-74.32271844 10.97268043 -72.51052672 10.4680226 -70.69921875 9.9609375 C-10.51748831 -6.80543361 -10.51748831 -6.80543361 0 0 Z " fill="#FC4254" transform="translate(328.1875,232.0625)"/>
<path d="M0 0 C1.84078125 0.69899414 1.84078125 0.69899414 3.71875 1.41210938 C4.35071289 1.65646729 4.98267578 1.9008252 5.63378906 2.15258789 C7.52601741 2.88345748 9.4226291 3.60179136 11.3203125 4.31835938 C18.54674554 7.0702919 25.60564198 10.07699578 32.59008789 13.39746094 C35.27517843 14.63577455 37.97571587 15.7281598 40.7421875 16.76953125 C44.48720033 18.2435683 47.7683016 19.96023354 51.12109375 22.1796875 C52.9184413 23.36879561 54.7449869 24.51381341 56.58203125 25.640625 C72.41721907 35.38929468 89.44144653 47.75406735 94.1796875 66.70703125 C94.2621875 67.69703125 94.3446875 68.68703125 94.4296875 69.70703125 C94.64625 71.62515625 94.64625 71.62515625 94.8671875 73.58203125 C94.65719882 86.01336092 87.71816533 97.03111206 79.4296875 105.70703125 C78.72972656 106.48433594 78.02976562 107.26164062 77.30859375 108.0625 C48.40563213 138.87464807 -0.87480933 150.56332166 -40.5703125 159.70703125 C-41.80523438 159.99964844 -43.04015625 160.29226563 -44.3125 160.59375 C-51.78579576 162.28733861 -59.33356678 163.59038424 -66.8828125 164.89453125 C-67.89794922 165.07387207 -68.91308594 165.25321289 -69.95898438 165.43798828 C-85.56726909 168.0590118 -85.56726909 168.0590118 -89.22802734 165.58813477 C-91.38579265 163.27474336 -92.49118089 161.17972009 -93.01171875 158.0703125 C-92.36823626 153.16731758 -90.01162681 149.68319479 -87.4453125 145.51953125 C-86.4210465 143.80518223 -85.39760164 142.09034233 -84.375 140.375 C-83.88354492 139.55950684 -83.39208984 138.74401367 -82.88574219 137.90380859 C-80.29886635 133.58370674 -77.9260319 129.1561032 -75.5703125 124.70703125 C-74.9829834 123.59787354 -74.9829834 123.59787354 -74.38378906 122.46630859 C-66.34119052 107.25351902 -58.39438361 92.06204961 -51.50585938 76.28759766 C-48.98326997 70.53962644 -46.23509822 64.96152523 -43.30859375 59.40625 C-41.19476945 55.13516666 -39.59680057 50.65828195 -37.91088867 46.20581055 C-35.73197021 40.51903575 -33.39107308 34.89954695 -31.0703125 29.26953125 C-27.66323083 20.99081608 -24.36247142 12.75262005 -21.66796875 4.2109375 C-20.39891112 1.31604091 -18.98993837 -0.27737907 -16.5703125 -2.29296875 C-10.83768048 -4.20384609 -5.45848109 -2.07974633 0 0 Z " fill="#FD4254" transform="translate(628.5703125,248.29296875)"/>
<path d="M0 0 C-3.90028225 2.60018816 -7.47434569 2.15085514 -12 2 C-12 2.66 -12 3.32 -12 4 C-13.07121094 4.06058594 -14.14242187 4.12117188 -15.24609375 4.18359375 C-16.64324391 4.26798537 -18.04037857 4.35263406 -19.4375 4.4375 C-20.49807617 4.49647461 -20.49807617 4.49647461 -21.58007812 4.55664062 C-25.08690419 4.47624438 -25.08690419 4.47624438 -28 6 C-30.64984799 6.21128356 -33.28339897 6.37612666 -35.9375 6.5 C-41.12702618 6.54291236 -41.12702618 6.54291236 -46 8 C-47.60727367 8.14050291 -49.21958453 8.22570442 -50.83203125 8.28125 C-51.79560547 8.31863281 -52.75917969 8.35601562 -53.75195312 8.39453125 C-54.76193359 8.42933594 -55.77191406 8.46414063 -56.8125 8.5 C-58.79830912 8.56922769 -60.78399759 8.64202718 -62.76953125 8.71875 C-64.09368042 8.76418945 -64.09368042 8.76418945 -65.44458008 8.81054688 C-68.03522783 9.00261171 -70.45674755 9.48389011 -73 10 C-74.54840616 10.1270823 -76.09992136 10.22045312 -77.65234375 10.28125 C-78.51150391 10.31863281 -79.37066406 10.35601562 -80.25585938 10.39453125 C-81.14080078 10.42933594 -82.02574219 10.46414063 -82.9375 10.5 C-84.69675308 10.569495 -86.45587786 10.64233051 -88.21484375 10.71875 C-88.98948975 10.74904297 -89.76413574 10.77933594 -90.56225586 10.81054688 C-93.03997154 10.95728719 -93.03997154 10.95728719 -95.60131836 11.5 C-100.45191693 12.21360002 -105.26707247 12.21660073 -110.1640625 12.28125 C-111.76850723 12.30886414 -111.76850723 12.30886414 -113.40536499 12.33703613 C-117.96773615 12.41546444 -122.53024761 12.48350627 -127.09277344 12.55224609 C-130.42910968 12.60400537 -133.76532146 12.66122698 -137.1015625 12.71875 C-138.65008408 12.73911316 -138.65008408 12.73911316 -140.22988892 12.7598877 C-141.19123749 12.77660522 -142.15258606 12.79332275 -143.14306641 12.81054688 C-144.4083165 12.82933899 -144.4083165 12.82933899 -145.6991272 12.84851074 C-147.91782905 12.99458987 -149.86774071 13.38643222 -152 14 C-149.84709131 11.41191264 -148.63087299 10.1259497 -145.27770996 9.45651245 C-144.23409302 9.43589752 -143.19047607 9.41528259 -142.11523438 9.39404297 C-140.92458374 9.36075897 -139.73393311 9.32747498 -138.50720215 9.29318237 C-136.57004333 9.26793991 -136.57004333 9.26793991 -134.59375 9.2421875 C-133.2316026 9.20973817 -131.86949976 9.17536825 -130.50744629 9.13919067 C-126.90166809 9.04770309 -123.29581959 8.97833795 -119.68945312 8.91479492 C-113.32369867 8.79909265 -106.95868452 8.64574745 -100.59375 8.4921875 C-99.89818182 8.4759263 -99.20261364 8.45966511 -98.48596764 8.44291115 C-73.69269111 7.84958763 -49.17520472 5.45304011 -24.609375 2.140625 C-23.57272705 2.00197021 -22.5360791 1.86331543 -21.46801758 1.72045898 C-19.51395844 1.45740953 -17.5605983 1.18908757 -15.6081543 0.91430664 C-10.3479862 0.19934632 -5.30886952 -0.13008898 0 0 Z " fill="#CB4C5F" transform="translate(564,443)"/>
<path d="M0 0 C0.84487976 -0.00511093 1.68975952 -0.01022186 2.5602417 -0.01548767 C5.33597013 -0.02931701 8.11144838 -0.02843185 10.88720703 -0.02612305 C12.82862438 -0.03001378 14.77004088 -0.03434923 16.7114563 -0.03910828 C20.77478803 -0.04655629 24.83803286 -0.04628961 28.90136719 -0.04101562 C34.09178241 -0.03522457 39.28184038 -0.0521502 44.47219658 -0.0753603 C48.48037778 -0.09013884 52.48847377 -0.09096371 56.4966774 -0.08785057 C58.40951367 -0.08836176 60.32235497 -0.09356136 62.23516464 -0.10366249 C64.9174248 -0.11608901 67.59899966 -0.10919819 70.28125 -0.09765625 C71.06076019 -0.10529999 71.84027039 -0.11294373 72.6434021 -0.12081909 C78.29747493 -0.0674202 83.01314431 1.22895283 88.27001953 3.2746582 C85.27001953 5.2746582 85.27001953 5.2746582 82.27001953 5.2746582 C81.77501953 4.2846582 81.77501953 4.2846582 81.27001953 3.2746582 C69.24795376 3.25148002 57.22589331 3.23371515 45.20380974 3.22284603 C39.62137945 3.21762921 34.03896446 3.2105533 28.45654297 3.19921875 C23.06843033 3.18834728 17.68033239 3.18237231 12.29220963 3.17978096 C10.23734429 3.1779344 8.18247976 3.17432856 6.1276207 3.16892815 C3.24782323 3.16166123 0.36808642 3.16066965 -2.51171875 3.16113281 C-3.78378929 3.1557399 -3.78378929 3.1557399 -5.08155823 3.15023804 C-9.41288133 3.15776761 -13.46429502 3.40720817 -17.72998047 4.2746582 C-13.09560342 -0.35971884 -6.16271737 -0.01948497 0 0 Z " fill="#BFB962" transform="translate(394.72998046875,222.725341796875)"/>
<path d="M0 0 C1.7177639 0.24349686 1.7177639 0.24349686 3.4702301 0.49191284 C7.8224349 1.0331748 12.09506805 1.14133789 16.47631836 1.12939453 C17.28232986 1.13114685 18.08834137 1.13289917 18.91877747 1.13470459 C21.55915539 1.13907311 24.19946525 1.13620255 26.83984375 1.1328125 C28.69015007 1.13348704 30.54045631 1.13445832 32.39076233 1.13571167 C36.25978442 1.13718193 40.12878335 1.13505595 43.99780273 1.13037109 C48.9380856 1.12467824 53.87831407 1.12795429 58.81859493 1.13394356 C62.63717554 1.13757073 66.45574341 1.13640062 70.27432442 1.13381577 C72.0950477 1.13315225 73.91577217 1.13395464 75.73649406 1.13629532 C78.28912251 1.13885694 80.841665 1.13493205 83.39428711 1.12939453 C84.1348233 1.13141876 84.8753595 1.13344299 85.63833618 1.13552856 C90.82246473 1.11486952 95.85466513 0.63880994 101 0 C100 2 100 2 96.96017456 3.10882568 C92.87136174 4.17045216 88.84196768 4.28160309 84.63720703 4.25878906 C83.42840881 4.26404602 83.42840881 4.26404602 82.19519043 4.26940918 C79.54930836 4.27816214 76.90369698 4.27239907 74.2578125 4.265625 C72.40607655 4.26697376 70.55434095 4.26891606 68.7026062 4.27142334 C64.82758197 4.27436612 60.95265017 4.27010518 57.07763672 4.26074219 C52.12942176 4.24936418 47.18142419 4.25590206 42.23321724 4.26788712 C38.41033312 4.27514223 34.58749983 4.27280079 30.76461411 4.26763153 C28.94109954 4.26630429 27.11758024 4.26791005 25.2940712 4.27259064 C22.73645199 4.27771436 20.17917593 4.26986365 17.62158203 4.25878906 C16.87947479 4.26283752 16.13736755 4.26688599 15.37277222 4.27105713 C10.04277589 4.22866304 5.1563269 3.32619925 0 2 C0 1.34 0 0.68 0 0 Z " fill="#0E2C22" transform="translate(380,421)"/>
<path d="M0 0 C3.16671812 3.50148546 4.08950664 7.32674279 5.125 11.8125 C5.29386719 12.49892578 5.46273437 13.18535156 5.63671875 13.89257812 C12.26978553 41.49553713 7.26917321 71.79537065 1 99 C0.67 99 0.34 99 0 99 C-0.02689216 97.52093108 -0.04634621 96.04172517 -0.0625 94.5625 C-0.07410156 93.73878906 -0.08570313 92.91507812 -0.09765625 92.06640625 C0 90 0 90 1 89 C1.23427778 86.98405418 1.41336124 84.961526 1.5625 82.9375 C1.64628906 81.83277344 1.73007812 80.72804688 1.81640625 79.58984375 C1.87699219 78.73519531 1.93757812 77.88054687 2 77 C2.66 77 3.32 77 4 77 C3.98839844 76.18015625 3.97679687 75.3603125 3.96484375 74.515625 C3.95582031 73.43796875 3.94679688 72.3603125 3.9375 71.25 C3.92589844 70.18265625 3.91429687 69.1153125 3.90234375 68.015625 C4 65 4 65 4.49702454 63.04602051 C5.33073249 59.65463526 5.16296734 56.19248686 5.16796875 52.71875 C5.17129715 51.90942017 5.17462555 51.10009033 5.17805481 50.26623535 C5.18311324 48.55151943 5.18546347 46.83679369 5.18530273 45.12207031 C5.18746905 42.53693676 5.2055798 39.95224446 5.22460938 37.3671875 C5.35764922 20.63179355 5.35764922 20.63179355 0 5 C-0.1875 2.125 -0.1875 2.125 0 0 Z " fill="#CA4E62" transform="translate(595,95)"/>
<path d="M0 0 C-3.53094302 1.20220203 -6.12898982 0.79532349 -9.75 0.0625 C-10.73484375 -0.13214844 -11.7196875 -0.32679688 -12.734375 -0.52734375 C-13.48203125 -0.68332031 -14.2296875 -0.83929688 -15 -1 C-15.2990625 -0.21367187 -15.598125 0.57265625 -15.90625 1.3828125 C-17 4 -17 4 -18.5 5.875 C-20.51755973 8.73320962 -21.06366052 11.6326458 -22 15 C-24.74035492 23.09989262 -27.73985293 31.09550933 -31 39 C-31.66 39 -32.32 39 -33 39 C-32.938125 39.7425 -32.87625 40.485 -32.8125 41.25 C-33 44 -33 44 -34.4375 45.8125 C-36.76265808 49.06772131 -36.67024284 52.04291408 -37 56 C-37.99 55.67 -38.98 55.34 -40 55 C-37.24090143 46.27554004 -33.78144842 37.84960846 -30.33935547 29.37915039 C-29.55983266 27.45813124 -28.78320382 25.53597146 -28.0078125 23.61328125 C-27.75308167 22.98455109 -27.49835083 22.35582092 -27.23590088 21.70803833 C-25.02008189 16.18232974 -23.10975597 10.57729954 -21.26904297 4.91479492 C-19.91435334 1.8032829 -18.61271151 0.13827012 -16 -2 C-10.50158328 -3.83280557 -5.28935009 -1.93512808 0 0 Z " fill="#CE4B5E" transform="translate(628,248)"/>
<path d="M0 0 C-2.13994229 2.13994229 -7.02177609 1.21166308 -9.9921875 1.24609375 C-11.90267416 1.27770065 -13.81315577 1.30961394 -15.72363281 1.34179688 C-16.72930298 1.35718506 -17.73497314 1.37257324 -18.77111816 1.38842773 C-33.28406852 1.61787698 -47.77357604 1.89603811 -62.25 3 C-63.35327637 3.08306396 -64.45655273 3.16612793 -65.59326172 3.25170898 C-70.14276655 3.23740396 -70.14276655 3.23740396 -74 5 C-79.95336033 6.01233943 -85.49331035 5.98805537 -91.5 5.5625 C-92.32242187 5.51029297 -93.14484375 5.45808594 -93.9921875 5.40429688 C-95.99522899 5.27619538 -97.99768871 5.13904939 -100 5 C-100 4.67 -100 4.34 -100 4 C-74.82240423 0.712925 -49.48338608 -0.13600578 -24.125 -0.6875 C-22.49833405 -0.72473679 -22.49833405 -0.72473679 -20.83880615 -0.76272583 C-17.74939623 -0.83136701 -14.65995212 -0.89195599 -11.5703125 -0.94921875 C-10.63221741 -0.9698941 -9.69412231 -0.99056946 -8.7276001 -1.01187134 C-7.8689032 -1.02559784 -7.0102063 -1.03932434 -6.12548828 -1.0534668 C-4.99785568 -1.07439644 -4.99785568 -1.07439644 -3.84744263 -1.0957489 C-2 -1 -2 -1 0 0 Z " fill="#3C2434" transform="translate(454,194)"/>
<path d="M0 0 C-3.90028225 2.60018816 -7.47434569 2.15085514 -12 2 C-12 2.66 -12 3.32 -12 4 C-13.60681641 4.09087891 -13.60681641 4.09087891 -15.24609375 4.18359375 C-16.64324391 4.26798537 -18.04037857 4.35263406 -19.4375 4.4375 C-20.49807617 4.49647461 -20.49807617 4.49647461 -21.58007812 4.55664062 C-25.08690419 4.47624438 -25.08690419 4.47624438 -28 6 C-30.64984799 6.21128356 -33.28339897 6.37612666 -35.9375 6.5 C-41.12702618 6.54291236 -41.12702618 6.54291236 -46 8 C-47.47769601 8.15225954 -48.96131422 8.24919351 -50.4453125 8.31640625 C-51.35071777 8.35838135 -52.25612305 8.40035645 -53.18896484 8.44360352 C-54.15785645 8.48283936 -55.12674805 8.5220752 -56.125 8.5625 C-57.10807129 8.6049585 -58.09114258 8.64741699 -59.10400391 8.69116211 C-67.40763133 9.02641011 -75.69065526 9.10714055 -84 9 C-84 8.67 -84 8.34 -84 8 C-83.28271729 7.95512451 -82.56543457 7.91024902 -81.82641602 7.86401367 C-62.64168959 6.63991075 -43.65696663 4.70897018 -24.609375 2.140625 C-23.57272705 2.00197021 -22.5360791 1.86331543 -21.46801758 1.72045898 C-19.51395844 1.45740953 -17.5605983 1.18908757 -15.6081543 0.91430664 C-10.3479862 0.19934632 -5.30886952 -0.13008898 0 0 Z " fill="#BF4A5B" transform="translate(564,443)"/>
<path d="M0 0 C-0.33 0.66 -0.66 1.32 -1 2 C-3.73903729 2.91301243 -5.41350634 3.13772724 -8.23901367 3.17358398 C-9.09759476 3.18714935 -9.95617584 3.20071472 -10.84077454 3.21469116 C-12.24023567 3.23023544 -12.24023567 3.23023544 -13.66796875 3.24609375 C-15.68213315 3.27780763 -17.69629316 3.30980146 -19.71044922 3.34204102 C-20.76842712 3.35743927 -21.82640503 3.37283752 -22.91644287 3.38870239 C-41.22858347 3.66188278 -59.44616442 4.26410198 -77.7109375 5.59765625 C-83.15101441 5.9857643 -88.54794386 6.10517685 -94 6 C-94 5.67 -94 5.34 -94 5 C-92.84999512 4.91697632 -92.84999512 4.91697632 -91.67675781 4.83227539 C-88.20089775 4.5792989 -84.72545646 4.32095958 -81.25 4.0625 C-80.0434375 3.97548828 -78.836875 3.88847656 -77.59375 3.79882812 C-75.85351562 3.66831055 -75.85351562 3.66831055 -74.078125 3.53515625 C-72.47565918 3.41732788 -72.47565918 3.41732788 -70.84082031 3.29711914 C-68.14390727 3.09404915 -68.14390727 3.09404915 -66.16914368 2.49327087 C-63.55451939 1.89869615 -61.13473538 1.84493973 -58.45288086 1.81054688 C-57.34170395 1.79382935 -56.23052704 1.77711182 -55.0856781 1.7598877 C-53.2933651 1.73952454 -53.2933651 1.73952454 -51.46484375 1.71875 C-50.23464005 1.70034058 -49.00443634 1.68193115 -47.73695374 1.66296387 C-43.1354775 1.59421568 -38.53391029 1.5337463 -33.93231201 1.47393799 C-29.4222369 1.4148901 -24.91229839 1.34879189 -20.40234375 1.28125 C-19.20544418 1.26767456 -18.00854462 1.25409912 -16.77537537 1.2401123 C-15.11333824 1.21503601 -15.11333824 1.21503601 -13.41772461 1.18945312 C-12.44161728 1.17692505 -11.46550995 1.16439697 -10.45982361 1.15148926 C-6.81140806 0.92680007 -3.74050176 -0.10109464 0 0 Z " fill="#CC4E61" transform="translate(456,191)"/>
<path d="M0 0 C0.33 0 0.66 0 1 0 C1.12546308 7.52778464 1.12546308 7.52778464 0.50390625 9.8671875 C-1.17885888 16.98958875 -0.12032259 25.14381097 0.5 32.375 C1.35626295 42.89135629 1.08445617 53.45727184 1 64 C0.67 64 0.34 64 0 64 C-1.98727114 51.86345126 -2.22276385 39.76802741 -2.25 27.5 C-2.25499512 26.71355103 -2.25999023 25.92710205 -2.26513672 25.11682129 C-2.30955629 16.57893624 -2.26486446 8.30622274 0 0 Z " fill="#C54758" transform="translate(268,106)"/>
<path d="M0 0 C1.22589844 0.01353516 1.22589844 0.01353516 2.4765625 0.02734375 C3.41628906 0.04474609 3.41628906 0.04474609 4.375 0.0625 C4.705 0.7225 5.035 1.3825 5.375 2.0625 C2.405 1.7325 -0.565 1.4025 -3.625 1.0625 C-4.285 2.3825 -4.945 3.7025 -5.625 5.0625 C-6.285 5.0625 -6.945 5.0625 -7.625 5.0625 C-7.7796875 6.609375 -7.7796875 6.609375 -7.9375 8.1875 C-8.62262668 12.0491231 -9.8270875 14.61650104 -11.625 18.0625 C-12.32407414 20.79822585 -12.32407414 20.79822585 -12.625 23.0625 C-13.285 23.0625 -13.945 23.0625 -14.625 23.0625 C-14.8415625 24.609375 -14.8415625 24.609375 -15.0625 26.1875 C-15.54160457 29.48799813 -16.06375083 32.77518341 -16.625 36.0625 C-17.285 36.0625 -17.945 36.0625 -18.625 36.0625 C-18.5425 36.805 -18.46 37.5475 -18.375 38.3125 C-18.69753353 41.8603688 -20.07333166 42.71175043 -22.625 45.0625 C-20.44117836 36.42264467 -17.63500055 28.07123683 -14.625 19.6875 C-14.18671875 18.44355469 -13.7484375 17.19960938 -13.296875 15.91796875 C-12.86890625 14.72042969 -12.4409375 13.52289063 -12 12.2890625 C-11.61585938 11.21221191 -11.23171875 10.13536133 -10.8359375 9.02587891 C-8.30122518 2.82298816 -6.88738499 -0.09839121 0 0 Z " fill="#C64A5D" transform="translate(303.625,369.9375)"/>
<path d="M0 0 C0.33 0 0.66 0 1 0 C2.03300799 5.12984731 2.17689106 10.0725065 2.203125 15.28125 C2.20882507 16.17179077 2.21452515 17.06233154 2.22039795 17.9798584 C2.22981751 19.86253688 2.23636979 21.74523161 2.24023438 23.62792969 C2.24987486 26.46319656 2.28090019 29.2977174 2.3125 32.1328125 C2.37133991 42.5187415 1.8250842 51.93537124 -1 62 C-1.33 62 -1.66 62 -2 62 C-2 58.7 -2 55.4 -2 52 C-1.34 52 -0.68 52 0 52 C0 34.84 0 17.68 0 0 Z " fill="#C35163" transform="translate(601,486)"/>
<path d="M0 0 C0 0.33 0 0.66 0 1 C-1.2595752 1.14099121 -2.51915039 1.28198242 -3.81689453 1.42724609 C-8.55476574 1.95815486 -13.29231774 2.49186824 -18.02978516 3.02636719 C-20.0681125 3.25595635 -22.10652214 3.48481622 -24.14501953 3.71289062 C-39.68110509 5.44872234 -39.68110509 5.44872234 -55.15576172 7.65478516 C-58.13079514 8.01587505 -61.00610708 8.05951078 -64 8 C-63.67 7.34 -63.34 6.68 -63 6 C-55.40207382 4.172197 -47.45998057 3.71215043 -39.6796875 3.24609375 C-36.90064108 3.09362688 -36.90064108 3.09362688 -34 2 C-30.90962151 1.53016982 -27.79763893 1.24690659 -24.6875 0.9375 C-23.79772461 0.84807129 -22.90794922 0.75864258 -21.99121094 0.66650391 C-14.63441098 -0.02840793 -7.39072804 -0.22025348 0 0 Z " fill="#CC4C5D" transform="translate(362,197)"/>
<path d="M0 0 C0.33 0 0.66 0 1 0 C1.09724918 11.65344391 1.16088241 23.29572606 0.5625 34.9375 C0.52326416 35.74098877 0.48402832 36.54447754 0.44360352 37.37231445 C0.12815073 42.87184927 0.12815073 42.87184927 -1 44 C-1.20604085 45.32781878 -1.3662959 46.66295895 -1.5 48 C-1.88888889 51.88888889 -1.88888889 51.88888889 -3 53 C-3.23287008 54.68183948 -3.41264166 56.3712416 -3.5625 58.0625 C-3.64628906 58.98160156 -3.73007812 59.90070313 -3.81640625 60.84765625 C-3.87699219 61.55792969 -3.93757812 62.26820313 -4 63 C-5.485 63.495 -5.485 63.495 -7 64 C-6.72916667 62.375 -6.45833333 60.75 -6.1875 59.125 C-6.00574219 58.00609375 -5.82398438 56.8871875 -5.63671875 55.734375 C-5.21821209 53.27982061 -4.76344185 50.83112442 -4.26953125 48.390625 C-1.14591119 32.45737017 -0.77602797 16.18094936 0 0 Z " fill="#372335" transform="translate(603,128)"/>
<path d="M0 0 C2.38102161 3.8588971 2.62168861 5.45018136 1.8125 9.9375 C0.03999709 13.43142505 -1.99447442 16.69364967 -4.1875 19.9375 C-4.5175 18.6175 -4.8475 17.2975 -5.1875 15.9375 C-4.5275 15.9375 -3.8675 15.9375 -3.1875 15.9375 C-3.1875 14.6175 -3.1875 13.2975 -3.1875 11.9375 C-2.5275 11.9375 -1.8675 11.9375 -1.1875 11.9375 C-0.21220156 7.22351302 -0.21220156 7.22351302 -0.9375 2.5625 C-2.18468822 0.627803 -2.18468822 0.627803 -5.1875 -0.0625 C-11.32298947 -0.44596809 -17.21537767 0.52196235 -23.1875 1.9375 C-23.5175 2.2675 -23.8475 2.5975 -24.1875 2.9375 C-26.20714199 3.00994053 -28.22917124 3.02127188 -30.25 3 C-31.35472656 2.99097656 -32.45945312 2.98195312 -33.59765625 2.97265625 C-34.87962891 2.95525391 -34.87962891 2.95525391 -36.1875 2.9375 C-27.8930066 -2.14978929 -8.17036238 -5.28670507 0 0 Z " fill="#C44A5C" transform="translate(328.1875,232.0625)"/>
<path d="M0 0 C0.66 0 1.32 0 2 0 C0.67257639 4.30138235 -0.98989226 8.15766314 -3.08203125 12.140625 C-3.68466797 13.29433594 -4.28730469 14.44804687 -4.90820312 15.63671875 C-5.54277546 16.84124768 -6.17754208 18.04567428 -6.8125 19.25 C-8.04970699 21.60857665 -9.28454007 23.96838627 -10.51953125 26.328125 C-11.10943848 27.45412109 -11.6993457 28.58011719 -12.30712891 29.74023438 C-14.58938982 34.13491965 -16.80838838 38.5595213 -19 43 C-19.33 43 -19.66 43 -20 43 C-20 41.35 -20 39.7 -20 38 C-19.34 38 -18.68 38 -18 38 C-18 36.68 -18 35.36 -18 34 C-17.34 34 -16.68 34 -16 34 C-16 32.68 -16 31.36 -16 30 C-15.34 30 -14.68 30 -14 30 C-13.855625 29.4225 -13.71125 28.845 -13.5625 28.25 C-13.04166667 26.16666667 -12.52083333 24.08333333 -12 22 C-11.34 22 -10.68 22 -10 22 C-9.855625 21.4225 -9.71125 20.845 -9.5625 20.25 C-9.04166667 18.16666667 -8.52083333 16.08333333 -8 14 C-7.34 14 -6.68 14 -6 14 C-6 12.68 -6 11.36 -6 10 C-5.34 10 -4.68 10 -4 10 C-4 8.68 -4 7.36 -4 6 C-3.34 6 -2.68 6 -2 6 C-2 5.01 -2 4.02 -2 3 C-1.34 3 -0.68 3 0 3 C0 2.01 0 1.02 0 0 Z " fill="#D34A5E" transform="translate(313,266)"/>
<path d="M0 0 C-3.45826346 1.96934836 -6.87575512 2.7707448 -10.75 3.62109375 C-11.40395752 3.76652115 -12.05791504 3.91194855 -12.73168945 4.06178284 C-14.82006424 4.52532643 -16.90991037 4.98175709 -19 5.4375 C-21.05444858 5.88943992 -23.10854421 6.34292391 -25.16235352 6.79776001 C-26.50757517 7.0955697 -27.85311478 7.39194692 -29.19897461 7.68685913 C-34.38898779 8.83362942 -39.52135244 10.15291803 -44.64453125 11.56665039 C-47 12 -47 12 -50 11 C-48.02 10.67 -46.04 10.34 -44 10 C-44 9.34 -44 8.68 -44 8 C-27.29157175 4.74031891 -27.29157175 4.74031891 -19 4 C-19 3.34 -19 2.68 -19 2 C-16.03 2 -13.06 2 -10 2 C-10 1.34 -10 0.68 -10 0 C-6.7169902 -1.6415049 -3.57454967 -0.51888624 0 0 Z " fill="#2C2033" transform="translate(296,233)"/>
<path d="M0 0 C0.33 0 0.66 0 1 0 C0.85795259 1.58367747 0.71119847 3.16693318 0.5625 4.75 C0.48128906 5.63171875 0.40007812 6.5134375 0.31640625 7.421875 C0.03761535 9.69350452 -0.38790577 11.79851823 -1 14 C-1.66 14 -2.32 14 -3 14 C-2.938125 15.155 -2.87625 16.31 -2.8125 17.5 C-2.79838335 21.4950106 -3.73519124 24.44873476 -5.265625 28.1015625 C-6.26329239 30.68063883 -6.65820015 33.26560123 -7 36 C-7.66 36 -8.32 36 -9 36 C-8.32355988 28.47460363 -6.42454822 21.35491466 -4.5 14.0625 C-4.17902344 12.81919922 -3.85804688 11.57589844 -3.52734375 10.29492188 C-1.13289346 1.13289346 -1.13289346 1.13289346 0 0 Z " fill="#CE4B5D" transform="translate(278,424)"/>
<path d="M0 0 C0 0.33 0 0.66 0 1 C-0.86802246 1.11593506 -1.73604492 1.23187012 -2.63037109 1.35131836 C-5.84739707 1.78271288 -9.06397164 2.21729443 -12.28027344 2.65405273 C-13.67300415 2.84250965 -15.06590805 3.02969122 -16.45898438 3.21557617 C-18.4600854 3.48281723 -20.46052317 3.75501012 -22.4609375 4.02734375 C-23.66540527 4.18968506 -24.86987305 4.35202637 -26.11083984 4.51928711 C-28.93101261 4.84286139 -28.93101261 4.84286139 -31 6 C-32.59262066 6.15175549 -34.19064856 6.24900325 -35.7890625 6.31640625 C-37.20058594 6.37924805 -37.20058594 6.37924805 -38.640625 6.44335938 C-40.11789062 6.50233398 -40.11789062 6.50233398 -41.625 6.5625 C-42.61757813 6.60568359 -43.61015625 6.64886719 -44.6328125 6.69335938 C-47.08839838 6.79961069 -49.54408703 6.90164964 -52 7 C-52 6.67 -52 6.34 -52 6 C-45.88116248 5.13853611 -39.76137696 4.28427834 -33.640625 3.43652344 C-31.56092554 3.14746073 -29.48149288 2.85647141 -27.40234375 2.56347656 C-24.4043366 2.14134337 -21.40542092 1.7262737 -18.40625 1.3125 C-17.48509399 1.18125732 -16.56393799 1.05001465 -15.61486816 0.91479492 C-10.3530506 0.19678184 -5.31065354 -0.13005682 0 0 Z " fill="#3F2434" transform="translate(350,199)"/>
<path d="M0 0 C2.64 0 5.28 0 8 0 C8 0.66 8 1.32 8 2 C17.24 1.67 26.48 1.34 36 1 C28.48377948 6.01081368 16.93250938 4.89210475 8.28515625 3.328125 C5.49393082 2.6245105 2.74264876 1.87266097 0 1 C0 0.67 0 0.34 0 0 Z " fill="#CA4E5E" transform="translate(540,575)"/>
<path d="M0 0 C0.33 0 0.66 0 1 0 C1 1.65 1 3.3 1 5 C0.34 5 -0.32 5 -1 5 C-1.0825 6.051875 -1.165 7.10375 -1.25 8.1875 C-2.06667876 12.33895038 -3.28919958 13.86563701 -6 17 C-6.77833534 19.18214568 -6.77833534 19.18214568 -7 21 C-7.66 21 -8.32 21 -9 21 C-9.30744141 21.92232422 -9.30744141 21.92232422 -9.62109375 22.86328125 C-10.74739583 26.2421875 -11.87369792 29.62109375 -13 33 C-13.66 33 -14.32 33 -15 33 C-12.71340066 25.36997903 -9.43606642 18.51817926 -5.8125 11.4375 C-5.25369141 10.33341797 -4.69488281 9.22933594 -4.11914062 8.09179688 C-2.75155696 5.3916958 -1.37842166 2.69457967 0 0 Z " fill="#322535" transform="translate(302,291)"/>
<path d="M0 0 C2 3 2 3 1.625 5.1875 C1.41875 5.785625 1.2125 6.38375 1 7 C0.67 6.67 0.34 6.34 0 6 C-0.33 7.65 -0.66 9.3 -1 11 C-1.66 11 -2.32 11 -3 11 C-3 12.98 -3 14.96 -3 17 C-3.66 17 -4.32 17 -5 17 C-5.18175781 17.97839844 -5.18175781 17.97839844 -5.3671875 18.9765625 C-7.31474597 29.133829 -7.31474597 29.133829 -9 33 C-10.485 33.495 -10.485 33.495 -12 34 C-9.8298389 26.30040211 -7.15907228 18.84781973 -4.3125 11.375 C-3.89677734 10.27542969 -3.48105469 9.17585937 -3.05273438 8.04296875 C-2.03818089 5.36081585 -1.02055394 2.67987417 0 0 Z " fill="#332434" transform="translate(582,241)"/>
<path d="M0 0 C0.33 0.99 0.66 1.98 1 3 C0.02989215 4.77853106 -0.9472666 6.55512012 -2.0078125 8.28125 C-3.0870279 10.150757 -3.65900675 11.86879216 -4 14 C-4.66 14 -5.32 14 -6 14 C-6.33 15.32 -6.66 16.64 -7 18 C-7.66 18 -8.32 18 -9 18 C-9.19335938 18.60328125 -9.38671875 19.2065625 -9.5859375 19.828125 C-9.84632813 20.62734375 -10.10671875 21.4265625 -10.375 22.25 C-10.63023437 23.03890625 -10.88546875 23.8278125 -11.1484375 24.640625 C-11.95173667 26.86627958 -12.89711662 28.90931672 -14 31 C-14.99 30.67 -15.98 30.34 -17 30 C-11.44387726 19.93341514 -5.85903814 9.89440216 0 0 Z " fill="#273F23" transform="translate(523,361)"/>
<path d="M0 0 C1.09391762 3.28175285 0.95550747 3.89150619 -0.07421875 7.02734375 C-0.32800293 7.81455811 -0.58178711 8.60177246 -0.84326172 9.4128418 C-1.12186035 10.245979 -1.40045898 11.07911621 -1.6875 11.9375 C-1.96352051 12.78546143 -2.23954102 13.63342285 -2.52392578 14.50708008 C-3.34031679 17.00778214 -4.16859605 19.50425512 -5 22 C-5.43129843 23.3071898 -5.86232253 24.61447018 -6.29296875 25.921875 C-7.18622867 28.6177786 -8.08742439 31.310586 -9 34 C-9.33 34 -9.66 34 -10 34 C-10.22735286 30.21078567 -10.32702764 27.646788 -8.59375 24.21875 C-6.84512905 20.68722141 -6.07690159 17.48340802 -5.3125 13.625 C-5.06113281 12.37976563 -4.80976563 11.13453125 -4.55078125 9.8515625 C-4.36902344 8.91054688 -4.18726563 7.96953125 -4 7 C-3.34 7 -2.68 7 -2 7 C-1.34 4.69 -0.68 2.38 0 0 Z " fill="#2A2233" transform="translate(285,398)"/>
<path d="M0 0 C0.33 0 0.66 0 1 0 C0.70682131 13.09042841 -0.93541678 25.27128922 -4 38 C-4.33 38 -4.66 38 -5 38 C-5.02689216 36.52093108 -5.04634621 35.04172517 -5.0625 33.5625 C-5.07990234 32.32693359 -5.07990234 32.32693359 -5.09765625 31.06640625 C-5 29 -5 29 -4 28 C-3.76572222 25.98405418 -3.58663876 23.961526 -3.4375 21.9375 C-3.35371094 20.83277344 -3.26992188 19.72804687 -3.18359375 18.58984375 C-3.12300781 17.73519531 -3.06242188 16.88054687 -3 16 C-2.34 16 -1.68 16 -1 16 C-1.01160156 15.18015625 -1.02320313 14.3603125 -1.03515625 13.515625 C-1.04417969 12.43796875 -1.05320312 11.3603125 -1.0625 10.25 C-1.07410156 9.18265625 -1.08570313 8.1153125 -1.09765625 7.015625 C-1.01510087 4.46631499 -0.74617558 2.42066409 0 0 Z " fill="#D94C5A" transform="translate(600,156)"/>
<path d="M0 0 C0.33 0.66 0.66 1.32 1 2 C0.07421875 4.71484375 0.07421875 4.71484375 -1.3125 7.9375 C-1.76238281 8.99839844 -2.21226562 10.05929687 -2.67578125 11.15234375 C-4 14 -4 14 -6 17 C-6.33 17.99 -6.66 18.98 -7 20 C-9.0625 20.6875 -9.0625 20.6875 -11 21 C-9.53171057 15.82064939 -7.18508737 11.65626588 -4.375 7.125 C-3.95476562 6.43664062 -3.53453125 5.74828125 -3.1015625 5.0390625 C-2.07307528 3.35608342 -1.037279 1.67757468 0 0 Z " fill="#E4CF63" transform="translate(354,256)"/>
<path d="M0 0 C1.1171875 1.7578125 1.1171875 1.7578125 2 4 C1.3203125 5.9296875 1.3203125 5.9296875 0.125 7.875 C-1.49898595 10.76806105 -2 11.82394554 -2 15.25 C-2 18 -2 18 -3.875 20.375 C-6 22 -6 22 -8 22 C-5.92957946 14.39162534 -3.14169523 7.2271408 0 0 Z " fill="#322435" transform="translate(266,371)"/>
<path d="M0 0 C0.66 0 1.32 0 2 0 C2 0.66 2 1.32 2 2 C2.66 2 3.32 2 4 2 C4.28875 2.639375 4.5775 3.27875 4.875 3.9375 C5.82823451 6.15206079 5.82823451 6.15206079 8 7 C8.73075648 9.3140622 9.40138258 11.64828869 10 14 C10.66 14 11.32 14 12 14 C12.66 15.98 13.32 17.96 14 20 C14.66 20 15.32 20 16 20 C16.33 21.65 16.66 23.3 17 25 C13.29166238 21.61001155 10.67454063 17.79416534 7.9375 13.625 C7.50373047 12.97789062 7.06996094 12.33078125 6.62304688 11.6640625 C4.12380655 7.89047588 1.9369534 4.10253081 0 0 Z " fill="#2E232F" transform="translate(331,406)"/>
<path d="M0 0 C-4.78598665 3.95364114 -8.38508502 5.62516947 -14.50390625 6.59375 C-16.86231749 6.97759158 -19.07824026 7.53739296 -21.375 8.1875 C-24.78499486 8.95180919 -25.8525731 8.97750483 -29 8 C-25.19461421 6.69040355 -21.38604217 5.39059646 -17.57421875 4.09985352 C-16.27740145 3.65918902 -14.98149361 3.21583879 -13.68652344 2.76977539 C-11.82727262 2.12985714 -9.96445996 1.50031709 -8.1015625 0.87109375 C-6.98088379 0.48880615 -5.86020508 0.10651855 -4.70556641 -0.28735352 C-2 -1 -2 -1 0 0 Z " fill="#382437" transform="translate(651,390)"/>
<path d="M0 0 C-3.14104638 1.30352292 -6.28860948 2.59055489 -9.4375 3.875 C-10.75524414 4.42220703 -10.75524414 4.42220703 -12.09960938 4.98046875 C-17.6937023 7.25113378 -23.0704695 8.8539056 -29 10 C-28.34 9.67 -27.68 9.34 -27 9 C-27 8.34 -27 7.68 -27 7 C-25.35 6.67 -23.7 6.34 -22 6 C-22 5.67 -22 5.34 -22 5 C-20.02 5 -18.04 5 -16 5 C-16 4.34 -16 3.68 -16 3 C-14.68 3 -13.36 3 -12 3 C-12 2.34 -12 1.68 -12 1 C-4.265625 -1.19140625 -4.265625 -1.19140625 0 0 Z " fill="#D34A5F" transform="translate(664,384)"/>
<path d="M0 0 C0.66 0 1.32 0 2 0 C6 5.41176471 6 5.41176471 6 8 C6.99 8 7.98 8 9 8 C9.33 10.64 9.66 13.28 10 16 C10.66 16 11.32 16 12 16 C14.10865385 19.47307692 14.10865385 19.47307692 13.55859375 22.140625 C13.28208984 23.06101562 13.28208984 23.06101562 13 24 C10.82989757 20.18944575 8.66449525 16.37624164 6.5 12.5625 C5.87996094 11.47388672 5.25992188 10.38527344 4.62109375 9.26367188 C4.03457031 8.22919922 3.44804688 7.19472656 2.84375 6.12890625 C2.29912109 5.17056885 1.75449219 4.21223145 1.19335938 3.22485352 C0 1 0 1 0 0 Z " fill="#D14B5E" transform="translate(539,248)"/>
<path d="M0 0 C0 0.66 0 1.32 0 2 C-3.3 2 -6.6 2 -10 2 C-10 2.66 -10 3.32 -10 4 C-11.11375 4.309375 -12.2275 4.61875 -13.375 4.9375 C-16.7945155 5.82326483 -16.7945155 5.82326483 -19 7 C-20.87862875 6.91255632 -22.75455181 6.75824458 -24.625 6.5625 C-25.62789062 6.46066406 -26.63078125 6.35882813 -27.6640625 6.25390625 C-28.43492187 6.17011719 -29.20578125 6.08632813 -30 6 C-30 5.67 -30 5.34 -30 5 C-28.96101562 4.80664062 -27.92203125 4.61328125 -26.8515625 4.4140625 C-25.44269272 4.15112533 -24.03383967 3.88809846 -22.625 3.625 C-21.53203613 3.42136841 -21.53203613 3.42136841 -20.41699219 3.21362305 C-15.60327512 2.31278246 -10.80371746 1.36163855 -6.015625 0.33203125 C-4 0 -4 0 0 0 Z " fill="#312434" transform="translate(592,407)"/>
<path d="M0 0 C4.4877901 8.97558019 1.25916944 18.66747864 -1 28 C-1.33 28 -1.66 28 -2 28 C-2 24.7 -2 21.4 -2 18 C-1.34 18 -0.68 18 0 18 C0 12.06 0 6.12 0 0 Z " fill="#BF4958" transform="translate(601,520)"/>
<path d="M0 0 C0.87011719 0.00451172 1.74023438 0.00902344 2.63671875 0.01367188 C4.75784293 0.0253264 6.8789311 0.04325643 9 0.0625 C8.67 0.7225 8.34 1.3825 8 2.0625 C2.07386329 3.17698742 -3.50949017 3.04940908 -9.5 2.625 C-10.32242187 2.57279297 -11.14484375 2.52058594 -11.9921875 2.46679688 C-13.99522899 2.33869538 -15.99768871 2.20154939 -18 2.0625 C-18 1.7325 -18 1.4025 -18 1.0625 C-11.95180188 0.17347088 -6.10776514 -0.06098383 0 0 Z " fill="#232232" transform="translate(372,196.9375)"/>
<path d="M0 0 C2.31 0 4.62 0 7 0 C4.18034769 2.81965231 0.88680496 3.26535843 -2.875 4.1875 C-3.59558594 4.37763672 -4.31617188 4.56777344 -5.05859375 4.76367188 C-8.76725872 5.68913063 -11.35404127 6.12653757 -15 5 C-13.02 4.34 -11.04 3.68 -9 3 C-9 2.34 -9 1.68 -9 1 C-6.03 1.33 -3.06 1.66 0 2 C0 1.34 0 0.68 0 0 Z " fill="#C94E5F" transform="translate(611,399)"/>
<path d="M0 0 C2.95417295 1.3715803 5.52711406 2.86820178 8 5 C8.33 5.99 8.66 6.98 9 8 C9.99 8.33 10.98 8.66 12 9 C12.94921875 11.06640625 12.94921875 11.06640625 13.6875 13.5625 C13.93886719 14.38878906 14.19023437 15.21507812 14.44921875 16.06640625 C14.63097656 16.70449219 14.81273437 17.34257812 15 18 C11.3232471 14.4226188 7.95617318 10.70146268 4.6875 6.75 C4.23310547 6.20859375 3.77871094 5.6671875 3.31054688 5.109375 C0 1.12676222 0 1.12676222 0 0 Z " fill="#272533" transform="translate(392,491)"/>
<path d="M0 0 C0.66 0 1.32 0 2 0 C-0.39707314 8.17824952 -4.08858772 15.46651278 -8 23 C-9.04449911 19.86650268 -8.93423645 19.01031744 -8 16 C-7.34 16 -6.68 16 -6 16 C-5.87625 15.05125 -5.7525 14.1025 -5.625 13.125 C-5 10 -5 10 -3 8 C-2.35232207 5.42938689 -2.35232207 5.42938689 -2 3 C-1.34 3 -0.68 3 0 3 C0 2.01 0 1.02 0 0 Z " fill="#2E2432" transform="translate(575,325)"/>
<path d="M0 0 C3.36720387 1.39332574 4.9859524 2.9789286 7 6 C5.35 6 3.7 6 2 6 C2 5.01 2 4.02 2 3 C0.70756532 4.1241176 -0.58392075 5.24932592 -1.875 6.375 C-2.59429687 7.00148438 -3.31359375 7.62796875 -4.0546875 8.2734375 C-5.4076598 9.47426834 -6.7208345 10.7208345 -8 12 C-8.99 11.67 -9.98 11.34 -11 11 C-10.28972656 10.37351562 -9.57945312 9.74703125 -8.84765625 9.1015625 C-7.46900391 7.87566406 -7.46900391 7.87566406 -6.0625 6.625 C-5.14597656 5.81289063 -4.22945313 5.00078125 -3.28515625 4.1640625 C-0.96398605 2.21290653 -0.96398605 2.21290653 0 0 Z " fill="#DEEEF1" transform="translate(433,534)"/>
<path d="M0 0 C0 0.66 0 1.32 0 2 C-4.43160009 5.39756007 -9.71515945 6.52189616 -15 8 C-16.0209375 8.33064453 -16.0209375 8.33064453 -17.0625 8.66796875 C-20.50445546 9.77325186 -22.5644541 10.04107451 -26 9 C-24.77023437 8.60167969 -23.54046875 8.20335937 -22.2734375 7.79296875 C-20.64054528 7.25805578 -19.00773721 6.72288592 -17.375 6.1875 C-16.56675781 5.92646484 -15.75851562 5.66542969 -14.92578125 5.39648438 C-10.26987576 3.86344232 -4.70845396 0 0 0 Z " fill="#392635" transform="translate(344,568)"/>
<path d="M0 0 C0.33 0 0.66 0 1 0 C1.50910422 3.49873754 2.005606 6.99915601 2.5 10.5 C2.64308594 11.48226563 2.78617188 12.46453125 2.93359375 13.4765625 C3.71357983 19.04789162 4.160716 24.37493985 4 30 C3.67 30 3.34 30 3 30 C2.86722656 28.94039063 2.73445312 27.88078125 2.59765625 26.7890625 C2.41946125 25.40101721 2.2410654 24.01299769 2.0625 22.625 C1.97548828 21.92632812 1.88847656 21.22765625 1.79882812 20.5078125 C1.33681872 16.63216425 1.33681872 16.63216425 0 13 C-0.07092842 10.7927077 -0.08415025 8.58332548 -0.0625 6.375 C-0.05347656 5.18648438 -0.04445313 3.99796875 -0.03515625 2.7734375 C-0.02355469 1.85820312 -0.01195312 0.94296875 0 0 Z " fill="#CB4C5F" transform="translate(597,456)"/>
<path d="M0 0 C0.33 0.66 0.66 1.32 1 2 C0.22265625 4.1640625 0.22265625 4.1640625 -0.9375 6.625 C-1.31777344 7.44226563 -1.69804687 8.25953125 -2.08984375 9.1015625 C-2.39019531 9.72804687 -2.69054687 10.35453125 -3 11 C-3.66 11 -4.32 11 -5 11 C-5 11.99 -5 12.98 -5 14 C-5.66 14 -6.32 14 -7 14 C-7 15.32 -7 16.64 -7 18 C-7.66 18 -8.32 18 -9 18 C-9 18.99 -9 19.98 -9 21 C-9.66 21 -10.32 21 -11 21 C-9.53171057 15.82064939 -7.18508737 11.65626588 -4.375 7.125 C-3.95476562 6.43664062 -3.53453125 5.74828125 -3.1015625 5.0390625 C-2.07307528 3.35608342 -1.037279 1.67757468 0 0 Z " fill="#DCCA65" transform="translate(366,235)"/>
<path d="M0 0 C0.99 0.495 0.99 0.495 2 1 C8.3476652 1.46513064 14.70046123 0.73648052 21 0 C21 0.66 21 1.32 21 2 C18.36 2 15.72 2 13 2 C13 2.66 13 3.32 13 4 C11.20841511 4.02696365 9.41671527 4.04637917 7.625 4.0625 C6.62726562 4.07410156 5.62953125 4.08570313 4.6015625 4.09765625 C2 4 2 4 0 3 C0 2.01 0 1.02 0 0 Z " fill="#382435" transform="translate(539,413)"/>
<path d="M0 0 C1.32 0.33 2.64 0.66 4 1 C4.33 3.31 4.66 5.62 5 8 C5.99 8.33 6.98 8.66 8 9 C9.37334617 11.28891028 10.15250816 13.45752447 11 16 C10.67 16.99 10.34 17.98 10 19 C8.32992313 16.02273264 6.66451428 13.0428803 5 10.0625 C4.28457031 8.78729492 4.28457031 8.78729492 3.5546875 7.48632812 C3.10351562 6.67744141 2.65234375 5.86855469 2.1875 5.03515625 C1.76855469 4.2862915 1.34960938 3.53742676 0.91796875 2.76586914 C0 1 0 1 0 0 Z " fill="#DFCD66" transform="translate(340,364)"/>
<path d="M0 0 C-3.53094302 1.20220203 -6.12898982 0.79532349 -9.75 0.0625 C-10.73484375 -0.13214844 -11.7196875 -0.32679688 -12.734375 -0.52734375 C-13.48203125 -0.68332031 -14.2296875 -0.83929688 -15 -1 C-15.268125 -0.21625 -15.53625 0.5675 -15.8125 1.375 C-17 4 -17 4 -20 6 C-19.5047783 2.33535945 -18.9791794 0.29167646 -16 -2 C-10.50158328 -3.83280557 -5.28935009 -1.93512808 0 0 Z " fill="#CF4D62" transform="translate(628,248)"/>
<path d="M0 0 C4.43226206 0.94254156 7.78480569 3.05028467 11.625 5.375 C12.6459375 5.97441406 12.6459375 5.97441406 13.6875 6.5859375 C14.33976563 6.9778125 14.99203125 7.3696875 15.6640625 7.7734375 C16.25654785 8.12841309 16.8490332 8.48338867 17.45947266 8.84912109 C19 10 19 10 21 13 C19.68 13 18.36 13 17 13 C15.33333333 11.33333333 13.66666667 9.66666667 12 8 C9.70777315 6.77747901 7.4434616 5.91030922 5 5 C5 4.34 5 3.68 5 3 C4.01 3 3.02 3 2 3 C2 2.34 2 1.68 2 1 C1.34 0.67 0.68 0.34 0 0 Z " fill="#CF4D5F" transform="translate(676,270)"/>
<path d="M0 0 C0.66 0 1.32 0 2 0 C1.79503906 0.67804688 1.59007812 1.35609375 1.37890625 2.0546875 C-0.45296843 8.38298185 -1.58643411 14.42572839 -2 21 C-2.66 21 -3.32 21 -4 21 C-4.3690205 9.47835991 -4.3690205 9.47835991 -2 4 C-1.34 4 -0.68 4 0 4 C0 2.68 0 1.36 0 0 Z " fill="#242132" transform="translate(145,307)"/>
<path d="M0 0 C2.43273761 2.43273761 3.80919144 4.12496703 5.48046875 7.01171875 C5.92197266 7.76904297 6.36347656 8.52636719 6.81835938 9.30664062 C7.27017578 10.09232422 7.72199219 10.87800781 8.1875 11.6875 C8.65091797 12.48478516 9.11433594 13.28207031 9.59179688 14.10351562 C10.73205177 16.06663487 11.86793773 18.03214871 13 20 C11.68 20.33 10.36 20.66 9 21 C7.66666667 17 6.33333333 13 5 9 C4.34 9 3.68 9 3 9 C2.01 6.03 1.02 3.06 0 0 Z " fill="#D5C966" transform="translate(496,238)"/>
<path d="M0 0 C-0.33 0.66 -0.66 1.32 -1 2 C-3.32716 2.37400786 -5.66117862 2.70764733 -8 3 C-8.33 3.33 -8.66 3.66 -9 4 C-11.18292774 4.23481693 -13.37203174 4.41363323 -15.5625 4.5625 C-16.76003906 4.64628906 -17.95757812 4.73007813 -19.19140625 4.81640625 C-20.11824219 4.87699219 -21.04507813 4.93757812 -22 5 C-18.644661 2.76310733 -15.40369426 1.83264459 -11.5625 0.8125 C-10.55993164 0.52729492 -10.55993164 0.52729492 -9.53710938 0.23632812 C-6.06186139 -0.69706355 -3.41391321 -1.37080403 0 0 Z " fill="#C44A59" transform="translate(268,241)"/>
<path d="M0 0 C0.66 0 1.32 0 2 0 C2.66 1.65 3.32 3.3 4 5 C4.66 5 5.32 5 6 5 C8.85288164 10.73230171 10.53444296 15.59859065 11 22 C9.50960407 19.7644061 8.2834147 17.6954126 7.08984375 15.3125 C6.73986328 14.61382812 6.38988281 13.91515625 6.02929688 13.1953125 C5.66900391 12.47085938 5.30871094 11.74640625 4.9375 11 C4.57333984 10.27554688 4.20917969 9.55109375 3.83398438 8.8046875 C3.31094727 7.75667969 3.31094727 7.75667969 2.77734375 6.6875 C2.46015381 6.05199219 2.14296387 5.41648437 1.81616211 4.76171875 C1 3 1 3 0 0 Z " fill="#282330" transform="translate(589,83)"/>
<path d="M0 0 C0.33 0.99 0.66 1.98 1 3 C0.30132812 3.39832031 -0.39734375 3.79664063 -1.1171875 4.20703125 C-2.02726562 4.73683594 -2.93734375 5.26664063 -3.875 5.8125 C-4.77992188 6.33457031 -5.68484375 6.85664062 -6.6171875 7.39453125 C-9.23273183 8.93733799 -9.23273183 8.93733799 -11 12 C-14.125 12.6875 -14.125 12.6875 -17 13 C-13.75042141 9.49302905 -10.18687827 6.90631127 -6.25 4.25 C-5.64800781 3.83878906 -5.04601562 3.42757812 -4.42578125 3.00390625 C-2.95313343 1.99876568 -1.47692498 0.99884522 0 0 Z " fill="#2B2135" transform="translate(382,543)"/>
<path d="M0 0 C3.3 0 6.6 0 10 0 C2.41407644 3.79296178 -5.62439542 4.27460999 -14 4 C-10.57905758 1.71937172 -9.31812778 1.78074993 -5.3125 1.875 C-3.82169922 1.90207031 -3.82169922 1.90207031 -2.30078125 1.9296875 C-1.54152344 1.95289063 -0.78226563 1.97609375 0 2 C0 1.34 0 0.68 0 0 Z " fill="#362233" transform="translate(570,439)"/>
<path d="M0 0 C-1.48518799 4.04301175 -3.42877998 7.61146256 -5.625 11.3125 C-6.25664063 12.38113281 -6.88828125 13.44976562 -7.5390625 14.55078125 C-8.26222656 15.76314453 -8.26222656 15.76314453 -9 17 C-9.33 15.68 -9.66 14.36 -10 13 C-9.34 13 -8.68 13 -8 13 C-8 11.68 -8 10.36 -8 9 C-7.34 9 -6.68 9 -6 9 C-5.67 6.36 -5.34 3.72 -5 1 C-2 0 -2 0 0 0 Z " fill="#E0CD66" transform="translate(529,351)"/>
<path d="M0 0 C0.33 0 0.66 0 1 0 C1.10251672 5.12583611 1.03590199 9.94997778 0 15 C-0.66 15 -1.32 15 -2 15 C-1.938125 16.0828125 -1.938125 16.0828125 -1.875 17.1875 C-2.00921305 20.20729369 -2.75170619 22.26935729 -4 25 C-4.66 24.67 -5.32 24.34 -6 24 C-5.54287762 22.45797384 -5.08423653 20.91639786 -4.625 19.375 C-4.35171875 18.4571875 -4.0784375 17.539375 -3.796875 16.59375 C-3.20627716 14.67141193 -2.55617062 12.7671406 -1.875 10.875 C-0.77014455 7.24476067 -0.39032639 3.77315514 0 0 Z " fill="#2A2232" transform="translate(723,319)"/>
<path d="M0 0 C0.33 0 0.66 0 1 0 C1.505772 4.17261903 0.32948544 6.56219146 -1.84375 10.0859375 C-3.77527446 13.28339354 -5.35371571 16.64863556 -7 20 C-7.66 20 -8.32 20 -9 20 C-7.79119231 14.83509444 -5.88768087 10.69440344 -3.21875 6.11328125 C-2.06290572 4.1090769 -1.01370533 2.07903455 0 0 Z " fill="#C8495C" transform="translate(572,336)"/>
<path d="M0 0 C0.33 1.32 0.66 2.64 1 4 C0.34 4 -0.32 4 -1 4 C-0.7525 4.53625 -0.505 5.0725 -0.25 5.625 C0.14264838 9.35515965 -1.7346687 11.16833587 -4 14 C-4.99 14.33 -5.98 14.66 -7 15 C-5.45454854 9.52067211 -2.84456788 4.88570819 0 0 Z " fill="#292634" transform="translate(310,276)"/>
<path d="M0 0 C0.33 0 0.66 0 1 0 C0.85795259 1.58367747 0.71119847 3.16693318 0.5625 4.75 C0.48128906 5.63171875 0.40007812 6.5134375 0.31640625 7.421875 C0.03761535 9.69350452 -0.38790577 11.79851823 -1 14 C-1.66 14 -2.32 14 -3 14 C-3.33 14.99 -3.66 15.98 -4 17 C-5.56355918 13.87288164 -4.08381502 11.12190882 -3.125 7.9375 C-2.93808594 7.28716797 -2.75117188 6.63683594 -2.55859375 5.96679688 C-1.14311027 1.14311027 -1.14311027 1.14311027 0 0 Z " fill="#C2475A" transform="translate(278,424)"/>
<path d="M0 0 C0.66 0.33 1.32 0.66 2 1 C-2.455 8.425 -2.455 8.425 -7 16 C-8 12 -8 12 -8 10 C-7.01 10 -6.02 10 -5 10 C-5 8.35 -5 6.7 -5 5 C-4.34 5 -3.68 5 -3 5 C-2.67 4.01 -2.34 3.02 -2 2 C-1.34 2 -0.68 2 0 2 C0 1.34 0 0.68 0 0 Z " fill="#DFCD64" transform="translate(509,383)"/>
<path d="M0 0 C0.66 0 1.32 0 2 0 C2 0.66 2 1.32 2 2 C5.3 2.66 8.6 3.32 12 4 C12 3.34 12 2.68 12 2 C15.63 2 19.26 2 23 2 C23 2.33 23 2.66 23 3 C10.00238227 6.03910895 10.00238227 6.03910895 4 5 C1.4375 3.0625 1.4375 3.0625 0 1 C0 0.67 0 0.34 0 0 Z " fill="#D34D60" transform="translate(275,203)"/>
<path d="M0 0 C0.99 0.33 1.98 0.66 3 1 C3 2.32 3 3.64 3 5 C3.66 5 4.32 5 5 5 C5 5.99 5 6.98 5 8 C5.66 8 6.32 8 7 8 C7.66 9.98 8.32 11.96 9 14 C9.66 14 10.32 14 11 14 C10.67 15.32 10.34 16.64 10 18 C8.32605999 15.37957157 6.6621165 12.75294095 5 10.125 C4.52304687 9.37863281 4.04609375 8.63226563 3.5546875 7.86328125 C3.10351562 7.14785156 2.65234375 6.43242187 2.1875 5.6953125 C1.76855469 5.03547363 1.34960938 4.37563477 0.91796875 3.69580078 C0 2 0 2 0 0 Z " fill="#292230" transform="translate(320,387)"/>
<path d="M0 0 C0.66 0 1.32 0 2 0 C2.33 0.66 2.66 1.32 3 2 C6.77488955 4.42671471 10.0048185 4.4313906 14.3125 3.5 C14.869375 3.335 15.42625 3.17 16 3 C13.76726097 5.7479865 12.60907583 6.89632752 9.0625 7.5 C5.30446925 6.88644396 3.67185576 5.67185576 1 3 C0.67 2.01 0.34 1.02 0 0 Z " fill="#C0495F" transform="translate(553,272)"/>
<path d="M0 0 C1 2 1 2 0.1796875 4.64453125 C-4.12688488 15.10150791 -4.12688488 15.10150791 -9 19 C-8.5484022 16.06461428 -7.71134636 14.57603996 -6 12.0625 C-4.11529257 9.17654174 -3.39625402 7.36815915 -3 4 C-2.34 4 -1.68 4 -1 4 C-0.67 2.68 -0.34 1.36 0 0 Z " fill="#C94C61" transform="translate(598,548)"/>
<path d="M0 0 C0.66 0 1.32 0 2 0 C2.05447047 1.41623216 2.09300508 2.83308191 2.125 4.25 C2.14820313 5.03890625 2.17140625 5.8278125 2.1953125 6.640625 C1.87835818 10.46943322 0.10714011 12.83928984 -2 16 C-4.625 16.1875 -4.625 16.1875 -7 16 C-5.625 14 -5.625 14 -4 12 C-3.34 12 -2.68 12 -2 12 C-0.00214565 7.8794254 0.17835515 4.54805635 0 0 Z " fill="#2A2235" transform="translate(409,512)"/>
<path d="M0 0 C0.33 0.99 0.66 1.98 1 3 C-0.30406884 5.01920337 -1.63823419 7.01924973 -3 9 C-3 9.99 -3 10.98 -3 12 C-5.5 13.6875 -5.5 13.6875 -8 15 C-8.66 14.34 -9.32 13.68 -10 13 C-9.44570313 12.39671875 -8.89140625 11.7934375 -8.3203125 11.171875 C-7.59585937 10.37265625 -6.87140625 9.5734375 -6.125 8.75 C-5.04605469 7.56664062 -5.04605469 7.56664062 -3.9453125 6.359375 C-2.23064517 4.27973832 -1.07019127 2.45580733 0 0 Z " fill="#19352B" transform="translate(499,403)"/>
<path d="M0 0 C-1.58093054 1.12837409 -3.16484716 2.25256518 -4.75 3.375 C-5.63171875 4.00148438 -6.5134375 4.62796875 -7.421875 5.2734375 C-9.57414979 6.71480941 -11.65460523 7.91498093 -14 9 C-14 8.01 -14 7.02 -14 6 C-13.34 6.33 -12.68 6.66 -12 7 C-12 5.68 -12 4.36 -12 3 C-10.5682384 2.30062798 -9.12932968 1.61587282 -7.6875 0.9375 C-6.88699219 0.55464844 -6.08648437 0.17179687 -5.26171875 -0.22265625 C-3 -1 -3 -1 0 0 Z " fill="#24252F" transform="translate(180,274)"/>
<path d="M0 0 C0.66 0 1.32 0 2 0 C2.53679805 10.23892571 2.53679805 10.23892571 -1 15 C-1.33 15.9075 -1.66 16.815 -2 17.75 C-2.33 18.4925 -2.66 19.235 -3 20 C-3.99 20.33 -4.98 20.66 -6 21 C-4.88638999 17.93757247 -3.67158038 15.49771117 -1.875 12.75 C0.59696339 8.60259476 0.38361914 4.69933447 0 0 Z " fill="#2F2230" transform="translate(329,233)"/>
<path d="M0 0 C2.30232826 3.8038467 2.87840421 7.93802837 3.625 12.25 C3.7590625 12.99507812 3.893125 13.74015625 4.03125 14.5078125 C4.35966676 16.337563 4.6805798 18.16865754 5 20 C1.71439366 17.50293918 1.04194945 16.26783112 0.390625 12.109375 C0.32460767 10.65699377 0.2782503 9.20360636 0.25 7.75 C0.22035156 7.00492188 0.19070313 6.25984375 0.16015625 5.4921875 C0.0897657 3.66203328 0.04258168 1.83101231 0 0 Z " fill="#362332" transform="translate(270,184)"/>
<path d="M0 0 C0.33 0.99 0.66 1.98 1 3 C-5.34445951 6.98794598 -9.5717674 8.2518045 -17 8 C-17 7.67 -17 7.34 -17 7 C-16.35933594 6.82984375 -15.71867188 6.6596875 -15.05859375 6.484375 C-9.49634683 4.92595112 -4.88676286 3.08078528 0 0 Z " fill="#332734" transform="translate(585,571)"/>
<path d="M0 0 C0.33 0 0.66 0 1 0 C1 2.31 1 4.62 1 7 C0.34 7 -0.32 7 -1 7 C-0.6596875 8.60875 -0.6596875 8.60875 -0.3125 10.25 C0 14 0 14 -1.3125 16.4375 C-3 18 -3 18 -5 18 C-1.92482916 5.33029613 -1.92482916 5.33029613 0 0 Z " fill="#33243B" transform="translate(590,214)"/>
<path d="M0 0 C0 0.99 0 1.98 0 3 C-0.78375 3.7425 -1.5675 4.485 -2.375 5.25 C-5.54874189 8.57487246 -6.04947197 10.59300639 -7 15 C-6.34 15 -5.68 15 -5 15 C-5.33 15.99 -5.66 16.98 -6 18 C-8 16 -8 16 -8.4375 12.1875 C-8.36073047 8.65610141 -8.07593625 8.0923549 -5.6875 5.1875 C-4.800625 4.465625 -3.91375 3.74375 -3 3 C-2.401875 2.401875 -1.80375 1.80375 -1.1875 1.1875 C-0.795625 0.795625 -0.40375 0.40375 0 0 Z " fill="#C84C59" transform="translate(464,120)"/>
<path d="M0 0 C5.31866251 3.8343846 8.33447993 7.99668267 11 14 C11 14.66 11 15.32 11 16 C10.34 16 9.68 16 9 16 C9 15.01 9 14.02 9 13 C8.34 13 7.68 13 7 13 C6.34 10.69 5.68 8.38 5 6 C3.68 5.67 2.36 5.34 1 5 C0.67 3.35 0.34 1.7 0 0 Z " fill="#CD4B5A" transform="translate(584,79)"/>
<path d="M0 0 C4.35970831 1.34849837 8.31341438 3.04907846 12.375 5.125 C13.43460938 5.66382813 14.49421875 6.20265625 15.5859375 6.7578125 C16.38257813 7.16773438 17.17921875 7.57765625 18 8 C18 8.33 18 8.66 18 9 C12.58313528 9.84638511 9.26586415 6.88117841 5 4 C4.01 3.4225 3.02 2.845 2 2.25 C1.34 1.8375 0.68 1.425 0 1 C0 0.67 0 0.34 0 0 Z " fill="#2C2231" transform="translate(512,564)"/>
<path d="M0 0 C3.3 0 6.6 0 10 0 C6.39472663 1.80263669 4.0236263 2.50002937 0.125 3.125 C-1.38707031 3.37636719 -1.38707031 3.37636719 -2.9296875 3.6328125 C-5.98561748 3.99827995 -8.92557891 4.06424163 -12 4 C-8.09971775 1.39981184 -4.52565431 1.84914486 0 2 C0 1.34 0 0.68 0 0 Z " fill="#C3495C" transform="translate(568,409)"/>
<path d="M0 0 C0.66 0 1.32 0 2 0 C2 0.66 2 1.32 2 2 C2.99 2.33 3.98 2.66 5 3 C2.92085336 3.70005949 0.83648414 4.38462244 -1.25 5.0625 C-2.41015625 5.44535156 -3.5703125 5.82820313 -4.765625 6.22265625 C-7.80077085 6.95211763 -9.15703213 7.11889082 -12 6 C-10.02 5.67 -8.04 5.34 -6 5 C-6 4.34 -6 3.68 -6 3 C-5.195625 2.690625 -4.39125 2.38125 -3.5625 2.0625 C-1.10919595 1.23664655 -1.10919595 1.23664655 0 0 Z " fill="#DF4B5E" transform="translate(630,392)"/>
<path d="M0 0 C4.29 0 8.58 0 13 0 C13 0.33 13 0.66 13 1 C12.07767578 1.05607422 12.07767578 1.05607422 11.13671875 1.11328125 C9.92435547 1.21189453 9.92435547 1.21189453 8.6875 1.3125 C7.88699219 1.37050781 7.08648437 1.42851562 6.26171875 1.48828125 C3.58492201 2.09391229 2.68140037 2.86749222 1 5 C-0.19027984 7.59915538 -0.19027984 7.59915538 -1 10 C-1.33 10 -1.66 10 -2 10 C-2 7.69 -2 5.38 -2 3 C-1.34 3 -0.68 3 0 3 C0 2.01 0 1.02 0 0 Z " fill="#28263A" transform="translate(295,369)"/>
<path d="M0 0 C1.23928302 3.71784906 0.60803244 5.53002784 -0.3125 9.3125 C-0.70888672 10.97732422 -0.70888672 10.97732422 -1.11328125 12.67578125 C-1.95599791 15.83504062 -2.9299052 18.91121108 -4 22 C-4.33 22 -4.66 22 -5 22 C-5 19.36 -5 16.72 -5 14 C-4.34 14 -3.68 14 -3 14 C-2.87625 13.175 -2.7525 12.35 -2.625 11.5 C-1.92897845 7.60227933 -0.99119051 3.83260331 0 0 Z " fill="#CD4E5F" transform="translate(592,202)"/>
<path d="M0 0 C4.46182436 1.31074365 7.99618757 3.07066011 11.875 5.625 C12.84179688 6.25664063 13.80859375 6.88828125 14.8046875 7.5390625 C15.52914063 8.02117187 16.25359375 8.50328125 17 9 C16.01 9.33 15.02 9.66 14 10 C12.64082143 9.03542166 11.30915279 8.03145371 10 7 C8.66893378 6.65772583 7.33599921 6.32248257 6 6 C5.67 5.34 5.34 4.68 5 4 C3.35636866 3.27840576 1.68949614 2.60648579 0 2 C0 1.34 0 0.68 0 0 Z " fill="#D74D60" transform="translate(350,81)"/>
<path d="M0 0 C6.98942918 0 6.98942918 0 9.8671875 2.84765625 C11.34455031 4.85163882 12.71720803 6.86687244 14 9 C10.40241608 7.67726488 7.36262865 6.0805802 4.1875 3.9375 C3.39730469 3.41027344 2.60710937 2.88304688 1.79296875 2.33984375 C1.20128906 1.89769531 0.60960937 1.45554687 0 1 C0 0.67 0 0.34 0 0 Z " fill="#2B2530" transform="translate(356,83)"/>
<path d="M0 0 C0.99 0 1.98 0 3 0 C3.268125 0.969375 3.53625 1.93875 3.8125 2.9375 C4.204375 3.948125 4.59625 4.95875 5 6 C5.99 6.33 6.98 6.66 8 7 C8 9.31 8 11.62 8 14 C5.66635648 11.07096942 3.95039164 8.11431797 2.3125 4.75 C1.65701172 3.41195313 1.65701172 3.41195313 0.98828125 2.046875 C0.66214844 1.37140625 0.33601563 0.6959375 0 0 Z " fill="#DFCD61" transform="translate(352,385)"/>
<path d="M0 0 C0.75 1.625 0.75 1.625 1 4 C-0.6875 6.875 -0.6875 6.875 -3 10 C-3.75645302 11.12067115 -4.50677572 12.24551221 -5.25 13.375 C-5.8275 14.24125 -6.405 15.1075 -7 16 C-7.33 15.34 -7.66 14.68 -8 14 C-7.109375 12.01171875 -7.109375 12.01171875 -5.75 9.6875 C-5.05583984 8.48867188 -5.05583984 8.48867188 -4.34765625 7.265625 C-3.90292969 6.51796875 -3.45820312 5.7703125 -3 5 C-2.401875 3.989375 -1.80375 2.97875 -1.1875 1.9375 C-0.795625 1.298125 -0.40375 0.65875 0 0 Z " fill="#C94B5D" transform="translate(552,375)"/>
<path d="M0 0 C5.63098876 3.00064027 10.88084541 6.18786361 16 10 C15.01 10.495 15.01 10.495 14 11 C11.8359375 10.00390625 11.8359375 10.00390625 9.375 8.5625 C8.55773437 8.08941406 7.74046875 7.61632812 6.8984375 7.12890625 C6.27195312 6.75636719 5.64546875 6.38382813 5 6 C5 5.34 5 4.68 5 4 C3.35 3.67 1.7 3.34 0 3 C0 2.01 0 1.02 0 0 Z " fill="#2C2133" transform="translate(496,553)"/>
<path d="M0 0 C-0.21484375 1.859375 -0.21484375 1.859375 -1 4 C-3.06640625 5.265625 -3.06640625 5.265625 -5.5625 6.25 C-6.38878906 6.58515625 -7.21507812 6.9203125 -8.06640625 7.265625 C-8.70449219 7.50796875 -9.34257813 7.7503125 -10 8 C-10 7.01 -10 6.02 -10 5 C-8.3203125 3.61328125 -8.3203125 3.61328125 -6.125 2.3125 C-5.40570312 1.87550781 -4.68640625 1.43851562 -3.9453125 0.98828125 C-2 0 -2 0 0 0 Z " fill="#10353B" transform="translate(691,397)"/>
<path d="M0 0 C2 0 2 0 3.5 1.4375 C3.995 1.953125 4.49 2.46875 5 3 C5.66 3.33 6.32 3.66 7 4 C6.979375 4.721875 6.95875 5.44375 6.9375 6.1875 C6.99820559 8.91925138 7.39258535 11.34256091 8 14 C5.66635648 11.07096942 3.95039164 8.11431797 2.3125 4.75 C1.65701172 3.41195313 1.65701172 3.41195313 0.98828125 2.046875 C0.66214844 1.37140625 0.33601562 0.6959375 0 0 Z " fill="#193621" transform="translate(513,266)"/>
<path d="M0 0 C1.32 0.33 2.64 0.66 4 1 C4 1.99 4 2.98 4 4 C4.66 4 5.32 4 6 4 C6 4.99 6 5.98 6 7 C6.99 7.33 7.98 7.66 9 8 C10.75 10.4375 10.75 10.4375 12 13 C11.67 13.66 11.34 14.32 11 15 C9.72528295 13.44066679 8.45539786 11.87738294 7.1875 10.3125 C6.47980469 9.44238281 5.77210938 8.57226562 5.04296875 7.67578125 C3.15270354 5.20000368 1.54332599 2.70203762 0 0 Z " fill="#D14D5C" transform="translate(483,168)"/>
<path d="M0 0 C2.54452069 3.03055273 3.7239002 5.68877218 4.75 9.5 C5.01296875 10.4384375 5.2759375 11.376875 5.546875 12.34375 C5.99880083 14.99297037 5.875264 16.49248692 5 19 C4.72285156 18.07316406 4.44570313 17.14632812 4.16015625 16.19140625 C3.61681641 14.39509766 3.61681641 14.39509766 3.0625 12.5625 C2.70285156 11.36753906 2.34320312 10.17257813 1.97265625 8.94140625 C1.29110858 6.14132455 1.29110858 6.14132455 0 5 C-0.04063832 3.33382885 -0.042721 1.66611905 0 0 Z " fill="#BE4A5D" transform="translate(595,95)"/>
<path d="M0 0 C2 0 2 0 3.875 1.5625 C5.6308764 3.57659352 6.78825616 5.25812033 8.0625 7.5625 C9.58529316 10.26422981 10.68594589 12.03305401 13 14 C12.01 14 11.02 14 10 14 C8.13759026 11.89122425 6.47078813 9.82165145 4.8125 7.5625 C4.34908203 6.95083984 3.88566406 6.33917969 3.40820312 5.70898438 C0 1.16638669 0 1.16638669 0 0 Z " fill="#2E2230" transform="translate(371,464)"/>
<path d="M0 0 C3.3 0 6.6 0 10 0 C5.98012591 2.00993705 3.16212692 2.55305762 -1.25 3.125 C-3.14492188 3.37636719 -3.14492188 3.37636719 -5.078125 3.6328125 C-6.52445313 3.81457031 -6.52445313 3.81457031 -8 4 C-8 3.34 -8 2.68 -8 2 C-5.36 2 -2.72 2 0 2 C0 1.34 0 0.68 0 0 Z " fill="#D0495C" transform="translate(586,405)"/>
<path d="M0 0 C0 2 0 2 -1.4375 3.5 C-1.953125 3.995 -2.46875 4.49 -3 5 C-3.33 5.66 -3.66 6.32 -4 7 C-4.99 7.33 -5.98 7.66 -7 8 C-8.66710346 9.49985609 -8.66710346 9.49985609 -10 11 C-10.66 10.67 -11.32 10.34 -12 10 C-10.33333333 8.33333333 -8.66666667 6.66666667 -7 5 C-6.113125 4.071875 -5.22625 3.14375 -4.3125 2.1875 C-2 0 -2 0 0 0 Z " fill="#D44857" transform="translate(169,282)"/>
<path d="M0 0 C0.99 0.33 1.98 0.66 3 1 C0.69 5.29 -1.62 9.58 -4 14 C-4.33 14 -4.66 14 -5 14 C-5 12.02 -5 10.04 -5 8 C-4.34 8 -3.68 8 -3 8 C-1.92474806 5.34771188 -0.90543849 2.71631546 0 0 Z " fill="#332334" transform="translate(276,80)"/>
<path d="M0 0 C6.4188547 1.73624758 12.13784836 3.85180745 18 7 C14.06329512 8.31223496 11.87511856 7.24296256 8 6 C8 5.34 8 4.68 8 4 C7.236875 3.855625 6.47375 3.71125 5.6875 3.5625 C3 3 3 3 0 2 C0 1.34 0 0.68 0 0 Z " fill="#2A2232" transform="translate(208,385)"/>
<path d="M0 0 C3.63 0.33 7.26 0.66 11 1 C11 1.99 11 2.98 11 4 C11.99 4 12.98 4 14 4 C14 4.66 14 5.32 14 6 C9.27934033 4.45730076 4.58335908 2.92205381 0 1 C0 0.67 0 0.34 0 0 Z " fill="#352533" transform="translate(646,255)"/>
<path d="M0 0 C0.66 0 1.32 0 2 0 C1.34215037 3.29680965 0.10579427 5.84117922 -1.5625 8.75 C-2.01753906 9.54921875 -2.47257812 10.3484375 -2.94140625 11.171875 C-3.29074219 11.77515625 -3.64007813 12.3784375 -4 13 C-4.66 12.01 -5.32 11.02 -6 10 C-5.525625 9.608125 -5.05125 9.21625 -4.5625 8.8125 C-2.64051301 6.58299509 -2.51273969 4.85669256 -2 2 C-1.34 1.34 -0.68 0.68 0 0 Z " fill="#173523" transform="translate(362,237)"/>
<path d="M0 0 C0.66 0 1.32 0 2 0 C2 0.66 2 1.32 2 2 C2.66 2 3.32 2 4 2 C4 2.99 4 3.98 4 5 C4.66 5 5.32 5 6 5 C8.10865385 8.47307692 8.10865385 8.47307692 7.55859375 11.140625 C7.28208984 12.06101563 7.28208984 12.06101563 7 13 C5.83072457 11.02237345 4.66464427 9.04285742 3.5 7.0625 C2.8503125 5.96035156 2.200625 4.85820312 1.53125 3.72265625 C0 1 0 1 0 0 Z " fill="#D54E60" transform="translate(531,235)"/>
<path d="M0 0 C0.33 0.99 0.66 1.98 1 3 C-0.65 3 -2.3 3 -4 3 C-4.20625 3.61875 -4.4125 4.2375 -4.625 4.875 C-6.54775888 7.84653645 -8.66594527 8.13024659 -12 9 C-8.77697025 4.16545537 -5.17379682 2.24783891 0 0 Z " fill="#C64A57" transform="translate(293,70)"/>
<path d="M0 0 C3.25516428 3.16474305 6.32008793 6.32752791 9 10 C9 10.66 9 11.32 9 12 C8.01 11.67 7.02 11.34 6 11 C5.67 10.34 5.34 9.68 5 9 C4.01 8.67 3.02 8.34 2 8 C1.26953125 6.15234375 1.26953125 6.15234375 0.8125 3.9375 C0.65394531 3.20402344 0.49539063 2.47054688 0.33203125 1.71484375 C0.22246094 1.14894531 0.11289062 0.58304687 0 0 Z " fill="#D54D5C" transform="translate(367,460)"/>
<path d="M0 0 C0.66 0.33 1.32 0.66 2 1 C0.35 5.62 -1.3 10.24 -3 15 C-3.33 15 -3.66 15 -4 15 C-4 13.02 -4 11.04 -4 9 C-3.34 9 -2.68 9 -2 9 C-2.04125 8.071875 -2.0825 7.14375 -2.125 6.1875 C-2 3 -2 3 0 0 Z " fill="#272331" transform="translate(603,259)"/>
<path d="M0 0 C1.65 0 3.3 0 5 0 C2.27521226 3.36591427 -1.06856792 4.44226276 -5 6 C-5 5.34 -5 4.68 -5 4 C-5.66 3.67 -6.32 3.34 -7 3 C-3.535 2.505 -3.535 2.505 0 2 C0 1.34 0 0.68 0 0 Z " fill="#202236" transform="translate(188,265)"/>
<path d="M0 0 C0.66 0.33 1.32 0.66 2 1 C-1.70090521 4.9252025 -5.54959656 7.94580156 -10 11 C-10.66 10.67 -11.32 10.34 -12 10 C-8.04 6.7 -4.08 3.4 0 0 Z " fill="#C24A5C" transform="translate(480,107)"/>
<path d="M0 0 C4.41309542 3.15221101 7.00793014 6.55463907 10 11 C9.01 11 8.02 11 7 11 C4 7.66666667 4 7.66666667 4 5 C2.68 4.67 1.36 4.34 0 4 C0 2.68 0 1.36 0 0 Z " fill="#D04A62" transform="translate(395,496)"/>
<path d="M0 0 C8.86956522 0.73913043 8.86956522 0.73913043 12 4 C12 4.66 12 5.32 12 6 C7.76570244 4.68938409 3.92592596 3.05643741 0 1 C0 0.67 0 0.34 0 0 Z " fill="#183B44" transform="translate(178,399)"/>
<path d="M0 0 C0.33 0.66 0.66 1.32 1 2 C-0.43359375 4.8203125 -0.43359375 4.8203125 -2.4375 8.125 C-3.09621094 9.22070312 -3.75492188 10.31640625 -4.43359375 11.4453125 C-4.95050781 12.28835938 -5.46742188 13.13140625 -6 14 C-6.33 12.68 -6.66 11.36 -7 10 C-6.34 10 -5.68 10 -5 10 C-5 8.68 -5 7.36 -5 6 C-4.34 6 -3.68 6 -3 6 C-2.814375 5.071875 -2.814375 5.071875 -2.625 4.125 C-2 2 -2 2 0 0 Z " fill="#2B2031" transform="translate(544,387)"/>
<path d="M0 0 C0.85271484 0.38091797 0.85271484 0.38091797 1.72265625 0.76953125 C6.46638896 2.88401645 11.22103732 4.96639886 16 7 C12.18510326 8.46726798 9.70988378 7.43336419 6 6 C6 5.34 6 4.68 6 4 C5.071875 3.7834375 5.071875 3.7834375 4.125 3.5625 C2 3 2 3 0 2 C0 1.34 0 0.68 0 0 Z " fill="#2C2232" transform="translate(192,377)"/>
<path d="M0 0 C0.33 0.66 0.66 1.32 1 2 C-0.21258505 5.23356015 -1.01284458 6.00856305 -4 8 C-5.19232613 10.05003955 -5.19232613 10.05003955 -6 12 C-6.66 11.01 -7.32 10.02 -8 9 C-5.36 6.03 -2.72 3.06 0 0 Z " fill="#1F3D45" transform="translate(141,271)"/>
<path d="M0 0 C1.79378179 2.69067269 2.97313958 5.08578257 4.1875 8.0625 C4.55230469 8.94035156 4.91710937 9.81820312 5.29296875 10.72265625 C6 13 6 13 5 15 C1.18073088 10.48631832 -0.34720628 5.90250682 0 0 Z " fill="#342335" transform="translate(265,541)"/>
<path d="M0 0 C2.31 0.66 4.62 1.32 7 2 C7 2.66 7 3.32 7 4 C7.99 4 8.98 4 10 4 C10 4.66 10 5.32 10 6 C10.66 6 11.32 6 12 6 C12 6.66 12 7.32 12 8 C9.14940657 6.61964507 6.44119096 5.10703513 3.75 3.4375 C3.04359375 3.00308594 2.3371875 2.56867188 1.609375 2.12109375 C1.07828125 1.75113281 0.5471875 1.38117188 0 1 C0 0.67 0 0.34 0 0 Z " fill="#D04B5D" transform="translate(170,363)"/>
<path d="M0 0 C0.33 0 0.66 0 1 0 C1 1.65 1 3.3 1 5 C0.34 5 -0.32 5 -1 5 C-1.103125 6.11375 -1.20625 7.2275 -1.3125 8.375 C-1.6528125 10.169375 -1.6528125 10.169375 -2 12 C-2.99 12.66 -3.98 13.32 -5 14 C-4.46515599 8.65155992 -2.53309233 4.64203897 0 0 Z " fill="#212331" transform="translate(302,291)"/>
<path d="M0 0 C-1.60032137 0.84069415 -3.20541171 1.67231505 -4.8125 2.5 C-6.15248047 3.19609375 -6.15248047 3.19609375 -7.51953125 3.90625 C-10 5 -10 5 -13 5 C-13 4.34 -13 3.68 -13 3 C-11.68 3 -10.36 3 -9 3 C-8.67 2.01 -8.34 1.02 -8 0 C-4.99093136 -1.24513185 -3.0590674 -0.84653438 0 0 Z " fill="#251E35" transform="translate(206,260)"/>
<path d="M0 0 C5.15009656 -0.66452859 9.60095108 1.50962933 14 4 C14.33 4.66 14.66 5.32 15 6 C4.44191344 2.92482916 4.44191344 2.92482916 0 1 C0 0.67 0 0.34 0 0 Z " fill="#3E233A" transform="translate(620,245)"/>
<path d="M0 0 C-0.33 0.66 -0.66 1.32 -1 2 C-4.42232972 3.14077657 -7.08673217 3.09815117 -10.6875 3.0625 C-12.45673828 3.04896484 -12.45673828 3.04896484 -14.26171875 3.03515625 C-15.16535156 3.02355469 -16.06898438 3.01195312 -17 3 C-17 2.67 -17 2.34 -17 2 C-15.10507994 1.66151348 -13.20901534 1.32943089 -11.3125 1 C-9.72888672 0.7215625 -9.72888672 0.7215625 -8.11328125 0.4375 C-5.35095938 0.04931926 -2.78257957 -0.08259976 0 0 Z " fill="#C84958" transform="translate(456,191)"/>
<path d="M0 0 C0.66 0.33 1.32 0.66 2 1 C-0.38957269 4.24299151 -2.2047869 6.50902342 -6 8 C-6.66 7.34 -7.32 6.68 -8 6 C-5.36 4.02 -2.72 2.04 0 0 Z " fill="#D6495C" transform="translate(498,94)"/>
<path d="M0 0 C1.48285242 0.95262034 2.96118201 1.91228405 4.4375 2.875 C5.67306641 3.67550781 5.67306641 3.67550781 6.93359375 4.4921875 C9 6 9 6 10 8 C3.73913043 6.95652174 3.73913043 6.95652174 1 5 C0.390625 2.421875 0.390625 2.421875 0 0 Z " fill="#232035" transform="translate(486,545)"/>
<path d="M0 0 C0 0.33 0 0.66 0 1 C-0.90492188 1.25523437 -0.90492188 1.25523437 -1.828125 1.515625 C-6.51063372 2.93548248 -9.85311149 4.03218406 -13 8 C-13 6.68 -13 5.36 -13 4 C-12.34 4 -11.68 4 -11 4 C-11 3.01 -11 2.02 -11 1 C-7.26562152 0.12132271 -3.83225427 -0.08912219 0 0 Z " fill="#2F2436" transform="translate(620,244)"/>
<path d="M0 0 C-2.88087546 2.40072955 -5.56404834 4.47291037 -9 6 C-9.33 5.01 -9.66 4.02 -10 3 C-9.34 3 -8.68 3 -8 3 C-8 2.34 -8 1.68 -8 1 C-5.29120665 -0.35439668 -2.99066732 -0.06501451 0 0 Z " fill="#113327" transform="translate(379,225)"/>
<path d="M0 0 C3.40364888 1.39935885 4.90806188 2.87004732 6.8125 6 C7.25207031 6.70125 7.69164062 7.4025 8.14453125 8.125 C8.42683594 8.74375 8.70914062 9.3625 9 10 C8.67 10.66 8.34 11.32 8 12 C6.66382103 10.18959679 5.33112616 8.3766216 4 6.5625 C3.2575 5.55316406 2.515 4.54382813 1.75 3.50390625 C0 1 0 1 0 0 Z " fill="#2B1F31" transform="translate(350,435)"/>
<path d="M0 0 C0.33 0.66 0.66 1.32 1 2 C-0.07229283 5.13439441 -1.47657021 8.06195683 -3 11 C-3.99 10.67 -4.98 10.34 -6 10 C-4.02 6.7 -2.04 3.4 0 0 Z " fill="#1C3725" transform="translate(512,381)"/>
<path d="M0 0 C2.64752004 2.57784846 4.94432065 4.91648098 7 8 C5.35 8 3.7 8 2 8 C0 2.25 0 2.25 0 0 Z " fill="#28243A" transform="translate(415,472)"/>
<path d="M0 0 C0.33 0.66 0.66 1.32 1 2 C0.06421005 4.35981813 -0.93347808 6.69631264 -2 9 C-2.66 9 -3.32 9 -4 9 C-4.33 9.99 -4.66 10.98 -5 12 C-5.33 11.34 -5.66 10.68 -6 10 C-4.78515625 7.6171875 -4.78515625 7.6171875 -3.0625 4.875 C-2.21365234 3.50988281 -2.21365234 3.50988281 -1.34765625 2.1171875 C-0.90292969 1.41851562 -0.45820312 0.71984375 0 0 Z " fill="#C74C61" transform="translate(543,391)"/>
<path d="M0 0 C0.93045933 2.55144824 1.08564091 3.74006478 0.22265625 6.359375 C-0.16019531 7.14828125 -0.54304688 7.9371875 -0.9375 8.75 C-1.50791016 9.94882813 -1.50791016 9.94882813 -2.08984375 11.171875 C-2.39019531 11.77515625 -2.69054687 12.3784375 -3 13 C-3.93045933 10.44855176 -4.08564091 9.25993522 -3.22265625 6.640625 C-2.83980469 5.85171875 -2.45695312 5.0628125 -2.0625 4.25 C-1.68222656 3.45078125 -1.30195313 2.6515625 -0.91015625 1.828125 C-0.60980469 1.22484375 -0.30945313 0.6215625 0 0 Z " fill="#CF4A61" transform="translate(274,88)"/>
<path d="M0 0 C0.99 0.66 1.98 1.32 3 2 C0.36 3.65 -2.28 5.3 -5 7 C-5 5.68 -5 4.36 -5 3 C-4.34 3 -3.68 3 -3 3 C-3 2.34 -3 1.68 -3 1 C-2.01 0.67 -1.02 0.34 0 0 Z " fill="#1F2534" transform="translate(490,97)"/>
<path d="M0 0 C0.33 0.66 0.66 1.32 1 2 C0.34 2 -0.32 2 -1 2 C-1.33 2.99 -1.66 3.98 -2 5 C-4.06640625 5.94921875 -4.06640625 5.94921875 -6.5625 6.6875 C-7.38878906 6.93886719 -8.21507812 7.19023438 -9.06640625 7.44921875 C-9.70449219 7.63097656 -10.34257812 7.81273438 -11 8 C-7.72291137 4.32966073 -4.28477792 2.30718811 0 0 Z " fill="#CA4A5E" transform="translate(511,86)"/>
<path d="M0 0 C2.31 0 4.62 0 7 0 C7 0.99 7 1.98 7 3 C8.32 3.33 9.64 3.66 11 4 C10.67 4.99 10.34 5.98 10 7 C9.52949219 6.66226563 9.05898438 6.32453125 8.57421875 5.9765625 C7.95160156 5.53054687 7.32898438 5.08453125 6.6875 4.625 C6.07261719 4.18414062 5.45773437 3.74328125 4.82421875 3.2890625 C3.2347608 2.16589093 1.61937829 1.07958553 0 0 Z " fill="#312735" transform="translate(574,72)"/>
<path d="M0 0 C1.32 0.33 2.64 0.66 4 1 C3.34 1 2.68 1 2 1 C2 1.99 2 2.98 2 4 C-0.64 4.33 -3.28 4.66 -6 5 C-5.67 4.34 -5.34 3.68 -5 3 C-2.4375 2.375 -2.4375 2.375 0 2 C0 1.34 0 0.68 0 0 Z " fill="#E04958" transform="translate(602,400)"/>
<path d="M0 0 C0.66 0 1.32 0 2 0 C0.66511872 3.59391114 -0.96022723 6.75490696 -3 10 C-3.66 8.68 -4.32 7.36 -5 6 C-4.01 6 -3.02 6 -2 6 C-2 5.01 -2 4.02 -2 3 C-1.34 3 -0.68 3 0 3 C0 2.01 0 1.02 0 0 Z " fill="#1C3522" transform="translate(333,289)"/>
<path d="M0 0 C1.24546405 2.49092811 0.7767578 3.41080733 0 6 C-0.66 6 -1.32 6 -2 6 C-2.33 7.65 -2.66 9.3 -3 11 C-3.66 10.67 -4.32 10.34 -5 10 C-3.66511872 6.40608886 -2.03977277 3.24509304 0 0 Z " fill="#E0CA63" transform="translate(337,286)"/>
<path d="M0 0 C3.0831351 1.19899698 6.06279492 2.47700477 9 4 C6.21176345 5.0326802 5.1322726 5.04509293 2.25 4.0625 C1.5075 3.711875 0.765 3.36125 0 3 C0 2.01 0 1.02 0 0 Z " fill="#C5465B" transform="translate(666,264)"/>
<path d="M0 0 C0.33 0.66 0.66 1.32 1 2 C0.67 2.66 0.34 3.32 0 4 C-0.99 4.33 -1.98 4.66 -3 5 C-4.68538601 6.99665314 -4.68538601 6.99665314 -6 9 C-6.66 8.34 -7.32 7.68 -8 7 C-5.36 4.69 -2.72 2.38 0 0 Z " fill="#DECE62" transform="translate(375,227)"/>
<path d="M0 0 C0.66 0 1.32 0 2 0 C2 0.66 2 1.32 2 2 C2.78375 2.144375 3.5675 2.28875 4.375 2.4375 C7 3 7 3 9 4 C9 4.66 9 5.32 9 6 C5.08788267 4.84414715 2.1254959 3.64465038 -1 1 C-0.67 0.67 -0.34 0.34 0 0 Z " fill="#D3485F" transform="translate(519,565)"/>
<path d="M0 0 C0.66 0.33 1.32 0.66 2 1 C0.375 3 0.375 3 -2 5 C-5.25 5.25 -5.25 5.25 -8 5 C-5.45378681 2.99940392 -3.01962385 1.20784954 0 0 Z " fill="#2E2133" transform="translate(352,563)"/>
<path d="M0 0 C0.66 1.32 1.32 2.64 2 4 C1.01 5.32 0.02 6.64 -1 8 C-1.99 7.67 -2.98 7.34 -4 7 C-2.68 4.69 -1.36 2.38 0 0 Z " fill="#193429" transform="translate(534,342)"/>
<path d="M0 0 C1.13643966 3.40931897 0.86747764 4.00335456 -0.4375 7.1875 C-0.72496094 7.90292969 -1.01242187 8.61835938 -1.30859375 9.35546875 C-1.53675781 9.89816406 -1.76492188 10.44085938 -2 11 C-2.33 11 -2.66 11 -3 11 C-3.33 8.69 -3.66 6.38 -4 4 C-3.34 4 -2.68 4 -2 4 C-1.34 2.68 -0.68 1.36 0 0 Z " fill="#D64D62" transform="translate(576,254)"/>
<path d="M0 0 C2 3 2 3 2 5 C-0.64 5.33 -3.28 5.66 -6 6 C-5.34 5.67 -4.68 5.34 -4 5 C-4 4.34 -4 3.68 -4 3 C-2.68 3 -1.36 3 0 3 C0 2.01 0 1.02 0 0 Z " fill="#CEE2E5" transform="translate(249,213)"/>
<path d="M0 0 C3.53600465 1.91135386 5.78972846 3.62642766 8 7 C6.35 6.67 4.7 6.34 3 6 C3 5.34 3 4.68 3 4 C2.34 4 1.68 4 1 4 C0.67 2.68 0.34 1.36 0 0 Z " fill="#CC475F" transform="translate(401,119)"/>
<path d="M0 0 C0.66 0.99 1.32 1.98 2 3 C0.71034824 4.37562854 -0.62689293 5.70766393 -2 7 C-2.66 7 -3.32 7 -4 7 C-2.92598892 4.08482708 -2.22189824 2.22189824 0 0 Z " fill="#212A37" transform="translate(262,386)"/>
<path d="M0 0 C2.75 0.125 2.75 0.125 6 1 C8.375 4.0625 8.375 4.0625 10 7 C6.42032008 5.34784004 3.22017048 3.26875648 0 1 C0 0.67 0 0.34 0 0 Z " fill="#31222E" transform="translate(689,276)"/>
<path d="M0 0 C-0.6875 1.9375 -0.6875 1.9375 -2 4 C-4.87939419 4.93580311 -6.25509788 5.37245106 -9 4 C-2.25 0 -2.25 0 0 0 Z " fill="#CB4660" transform="translate(192,267)"/>
<path d="M0 0 C1.13757948 4.55031791 0.4283779 6.63084406 -1 11 C-1.66 10.67 -2.32 10.34 -3 10 C-2.01 6.7 -1.02 3.4 0 0 Z " fill="#BB4554" transform="translate(607,252)"/>
<path d="M0 0 C-3.26545761 1.88391785 -6.28111761 2.49287967 -10 3 C-10 2.01 -10 1.02 -10 0 C-6.7169902 -1.6415049 -3.57454967 -0.51888624 0 0 Z " fill="#212432" transform="translate(296,233)"/>
<path d="M0 0 C2.3431213 0.25561323 4.67843403 0.59270772 7 1 C7.33 1.66 7.66 2.32 8 3 C7.01 4.485 7.01 4.485 6 6 C3.97945196 4.35830472 1.97956942 2.69088222 0 1 C0 0.67 0 0.34 0 0 Z " fill="#22233A" transform="translate(400,117)"/>
<path d="M0 0 C0.33 0.99 0.66 1.98 1 3 C-3.455 4.485 -3.455 4.485 -8 6 C-5.51047079 3.33264727 -3.36591866 1.44253657 0 0 Z " fill="#1D3D47" transform="translate(500,61)"/>
<path d="M0 0 C1.32 0.33 2.64 0.66 4 1 C4.33 2.32 4.66 3.64 5 5 C5.66 5 6.32 5 7 5 C6.67 5.66 6.34 6.32 6 7 C1.125 3.375 1.125 3.375 0 0 Z " fill="#CD4C5C" transform="translate(277,564)"/>
<path d="M0 0 C1.14926266 0.95421808 2.29430541 1.91352045 3.4375 2.875 C4.07558594 3.40867187 4.71367187 3.94234375 5.37109375 4.4921875 C7 6 7 6 8 8 C7.401875 7.690625 6.80375 7.38125 6.1875 7.0625 C3.91043228 5.89790296 3.91043228 5.89790296 1 5 C0.67 3.35 0.34 1.7 0 0 Z " fill="#2A2130" transform="translate(436,497)"/>
<path d="M0 0 C3.71599191 -0.20086443 4.77208445 -0.1519437 8 2 C8 2.66 8 3.32 8 4 C5.23723823 3.47731534 2.6739124 2.89130413 0 2 C0 1.34 0 0.68 0 0 Z " fill="#1A4248" transform="translate(226,419)"/>
<path d="M0 0 C1 2 1 2 0.44140625 3.9453125 C0.15136719 4.66460937 -0.13867188 5.38390625 -0.4375 6.125 C-0.72496094 6.84945313 -1.01242187 7.57390625 -1.30859375 8.3203125 C-1.53675781 8.87460937 -1.76492188 9.42890625 -2 10 C-2.99 10 -3.98 10 -5 10 C-3.66511872 6.40608886 -2.03977277 3.24509304 0 0 Z " fill="#213926" transform="translate(505,393)"/>
<path d="M0 0 C0 0.99 0 1.98 0 3 C-2.8125 5.25 -2.8125 5.25 -6 7 C-6.99 6.67 -7.98 6.34 -9 6 C-6.03 4.02 -3.06 2.04 0 0 Z " fill="#D6E8EC" transform="translate(707,389)"/>
<path d="M0 0 C3.465 1.98 3.465 1.98 7 4 C6.01 4.495 6.01 4.495 5 5 C4.34 4.67 3.68 4.34 3 4 C3 4.66 3 5.32 3 6 C2.34 6 1.68 6 1 6 C0.67 4.02 0.34 2.04 0 0 Z " fill="#202339" transform="translate(167,362)"/>
<path d="M0 0 C0.33 1.32 0.66 2.64 1 4 C0.34 4 -0.32 4 -1 4 C-1 4.66 -1 5.32 -1 6 C-1.66 6 -2.32 6 -3 6 C-3.33 6.99 -3.66 7.98 -4 9 C-4.33 8.34 -4.66 7.68 -5 7 C-3.35 4.69 -1.7 2.38 0 0 Z " fill="#CC485F" transform="translate(280,79)"/>
<path d="M0 0 C2.96865509 2.54456151 4.3619751 5.48994665 6 9 C4.68 8.67 3.36 8.34 2 8 C1.34 5.36 0.68 2.72 0 0 Z " fill="#1E3B1F" transform="translate(355,392)"/>
<path d="M0 0 C0 3.57575896 -1.08840607 5.05295935 -3 8 C-3.66 7.01 -4.32 6.02 -5 5 C-3.35 3.35 -1.7 1.7 0 0 Z " fill="#202237" transform="translate(704,357)"/>
<path d="M0 0 C0.99 0 1.98 0 3 0 C3.33 1.32 3.66 2.64 4 4 C2.02 4.99 2.02 4.99 0 6 C0 4.02 0 2.04 0 0 Z " fill="#E64452" transform="translate(696,358)"/>
<path d="M0 0 C0.33 0 0.66 0 1 0 C1.3125 2.1875 1.3125 2.1875 1 5 C-1.5 7.8125 -1.5 7.8125 -4 10 C-2.8905928 6.51329166 -1.73662334 3.22515763 0 0 Z " fill="#D74D60" transform="translate(572,336)"/>
<path d="M0 0 C1.04449911 3.13349732 0.93423645 3.98968256 0 7 C-0.66 7 -1.32 7 -2 7 C-2 7.66 -2 8.32 -2 9 C-2.66 9 -3.32 9 -4 9 C-2.80100302 5.9168649 -1.52299523 2.93720508 0 0 Z " fill="#DCCB6B" transform="translate(331,296)"/>
<path d="M0 0 C0.99 0.33 1.98 0.66 3 1 C1.02 3.97 1.02 3.97 -1 7 C-2 4 -2 4 -1.0625 1.8125 C-0.5365625 0.9153125 -0.5365625 0.9153125 0 0 Z " fill="#1C3529" transform="translate(337,281)"/>
<path d="M0 0 C1 3 1 3 -0.4375 6.1875 C-1.2109375 7.5796875 -1.2109375 7.5796875 -2 9 C-2.66 9 -3.32 9 -4 9 C-2.94124926 5.59687262 -1.99097846 2.98646769 0 0 Z " fill="#2D2232" transform="translate(317,263)"/>
<path d="M0 0 C2.4375 0.6875 2.4375 0.6875 5 2 C5.8125 4.625 5.8125 4.625 6 7 C1.125 2.25 1.125 2.25 0 0 Z " fill="#262637" transform="translate(438,156)"/>
<path d="M0 0 C2.31 1.98 4.62 3.96 7 6 C6.01 6.33 5.02 6.66 4 7 C2 6 2 6 0.875 2.9375 C0.58625 1.968125 0.2975 0.99875 0 0 Z " fill="#CB465D" transform="translate(409,126)"/>
<path d="M0 0 C0.33 0.99 0.66 1.98 1 3 C0.67 3.66 0.34 4.32 0 5 C-3.0625 5.625 -3.0625 5.625 -6 6 C-2.25 1.125 -2.25 1.125 0 0 Z " fill="#21404F" transform="translate(443,103)"/>
<path d="M0 0 C2.00720923 0.28674418 4.0085944 0.61866701 6 1 C4.35 2.32 2.7 3.64 1 5 C0.34 3.68 -0.32 2.36 -1 1 C-0.67 0.67 -0.34 0.34 0 0 Z " fill="#1D2435" transform="translate(500,88)"/>
<path d="M0 0 C6.75 1.875 6.75 1.875 9 3 C9 3.66 9 4.32 9 5 C5.22454612 3.90931332 2.52956528 3.0916909 0 0 Z " fill="#412738" transform="translate(347,78)"/>
</svg>
